<?xml version="1.0" encoding="utf-8"?>
<!-- Generator: Adobe Illustrator 25.2.1, SVG Export Plug-In . SVG Version: 6.00 Build 0)  -->
<svg version="1.1" id="Layer_1" xmlns="http://www.w3.org/2000/svg" xmlns:xlink="http://www.w3.org/1999/xlink" x="0px" y="0px"
	 viewBox="0 0 512 286" style="enable-background:new 0 0 512 286;" xml:space="preserve">
<style type="text/css">
	.st0{fill:#FFFFFF;}
</style>
<g>
	<g>
		<path class="st0" d="M81.3,89.2c5.6-6.9,12.7-12.7,20.9-16.7c4.1-2,8.5-3.5,13.1-4.3c2.3-0.4,4.6-0.6,7-0.7c2.4,0,4.9,0.3,7.3,1
			c2.4,0.7,4.7,1.7,6.8,2.9c2.1,1.2,4,2.6,5.9,4c3.6,2.9,6.9,5.8,10.2,8.5c3.3,2.6,6.7,4.9,10.4,6.5c3.6,1.6,7.5,2.7,11.4,3.1
			c2,0.2,4,0.3,6,0.3c1,0,2,0,3-0.1s1.9-0.2,2.9-0.3c3.9-0.6,7.8-1.8,11.6-3.3c7.7-3,15.3-7.3,22.9-11.6c15.1-8.8,30.6-18.3,48-24.7
			c8.7-3.2,17.8-5.6,27.1-6.7c4.7-0.6,9.4-0.8,14.1-0.7c4.6,0,9.2,0.4,13.8,0.8c4.6,0.5,9.1,1.2,13.6,2.1c4.5,0.9,8.9,2,13.3,3.2
			c8.8,2.4,17.3,5.5,25.6,8.8c8.3,3.3,16.4,6.9,24.5,10.1s16.2,6.2,24.5,7.3c16.7,1.8,34.8-3.7,47.5-16.1
			c-5.4,7.1-12.8,12.6-21.1,16.4c-4.1,1.9-8.5,3.3-13,4.2c-4.5,0.9-9,1.3-13.8,1.3c-4.7,0-9.3-0.7-13.8-1.7
			c-4.5-0.9-8.9-2.2-13.2-3.5c-8.6-2.7-16.9-5.6-25.3-8.4c-4.2-1.4-8.3-2.7-12.5-3.9s-8.3-2.3-12.5-3.3c-8.4-2-16.8-3.4-25.3-4.2
			c-2.1-0.1-4.2-0.4-6.4-0.4l-3.2-0.1h-3.2c-4.2-0.1-8.3,0.2-12.4,0.7c-8.2,1-16.4,3.1-24.3,6c-7.9,2.9-15.8,6.5-23.5,10.5
			c-7.7,4-15.4,8.3-23.2,12.6c-7.9,4.2-16,8.4-24.9,11.5c-4.5,1.5-9.1,2.7-14,3.3c-1.2,0.1-2.5,0.2-3.7,0.3c-1.2,0-2.5,0-3.7,0
			c-2.4-0.1-4.8-0.4-7.2-0.8c-4.8-0.8-9.5-2.4-13.8-4.6c-4.3-2.3-8.2-5.2-11.6-8.3c-3.4-3.1-6.5-6.3-9.6-9.2
			c-3.1-2.8-6.3-5.3-10-6.7c-1.8-0.7-3.7-1.1-5.7-1.3c-1-0.1-2-0.1-3.1-0.1c-1,0-2.1,0-3.1,0.1c-4.2,0.3-8.4,1.3-12.4,2.8
			c-4.1,1.4-7.9,3.4-11.7,5.7C88.1,83.6,84.6,86.2,81.3,89.2z"/>
	</g>
	<path class="st0" d="M134.5,75.6c0-2.5,0.1-4.8,0.4-6.7c0.3-1.9,0.8-3.7,1.6-5.2c0.7-1.6,1.7-3.1,2.8-4.6s2.4-3,3.9-4.7v-1.8H104
		v1.8c1.6,1.6,3,3.2,4.1,4.7s2,3,2.6,4.6c0.6,1.6,1,3.3,1.2,5.2s0.3,4.2,0.3,6.7V135l22.3-51.9V75.6z"/>
	<path class="st0" d="M110.3,209.6c-1.3,4.5-3.2,8.7-5.8,12.6c-2.6,3.9-5.9,7.2-9.8,10s-8.5,4.6-13.7,5.3v2.2c6.5,0,13-1.1,19.5-3.2
		c6.5-2.2,12.2-5.2,17.3-9.1c5-3.9,9.1-8.7,12.2-14.3s4.7-11.7,4.7-18.4l-0.1-40.6L112,200.6C111.7,203.5,111.2,206.5,110.3,209.6z"
		/>
	<path class="st0" d="M220.9,209.7c0-0.3-0.2-1.1-0.6-2.3c-0.4-1.3-0.8-2.6-1.2-4.1s-1-3.4-1.6-5.8c-4.5,4-9.5,7.1-15.1,9.1
		c-5.6,2.1-11.5,3.1-17.6,3.1c-8.8,0-15.9-2-21.4-6.1s-8.2-10.9-8.2-20.4c0-8,2.1-14.5,6.2-19.4c4.2-4.9,9.3-8.7,15.5-11.5
		c6.2-2.7,12.9-4.6,20.2-5.5s14-1.3,20.3-1.3c0-3.4-0.1-7.3-0.2-11.6c-0.1-4.3-0.8-8.4-1.9-12.1c-1.1-3.8-3-7-5.6-9.6
		s-6.3-3.9-11.2-3.9c-4,0-7.3,0.7-9.8,2s-4.5,3.2-5.9,5.5s-2.4,5-2.9,8s-0.8,6.3-0.8,9.9c0,2.2-1.2,3.9-3.6,5.1
		c-2.4,1.2-4.5,1.8-6.2,1.8c-2.5,0-4.9-0.9-7.1-2.6c-2.2-1.7-3.3-3.9-3.3-6.6c0-5.2,1.5-9.5,4.5-12.9s6.6-6.1,10.9-8.1
		c4.3-2,9-3.4,14-4.2c5-0.8,9.6-1.2,13.6-1.2c4.6,0,9.1,0.5,13.6,1.6c4.5,1,8.5,2.7,12,5c3.6,2.3,6.5,5.3,8.8,8.9s3.5,8.1,3.5,13.5
		l0.4,53.9c0,3,1.1,5.9,3.3,8.7s4.9,4.5,8,4.9v1.8L220.9,209.7z M217.3,149.4c-1-0.1-2-0.3-2.9-0.3c-0.9-0.1-1.9-0.1-2.9-0.1
		c-4.3,0-8.5,0.7-12.5,2.1c-4,1.4-7.6,3.4-10.7,6c-3.1,2.6-5.6,5.7-7.5,9.4c-1.9,3.6-2.8,7.7-2.8,12.1c0,6.8,1.5,12.4,4.5,16.8
		c3,4.4,8.2,6.6,15.6,6.6c3.6,0,6.9-0.9,10.1-2.7c3.2-1.8,6.2-3.8,9-6L217.3,149.4L217.3,149.4z"/>
	<path class="st0" d="M290.6,86.4v100.4c0,2.5,0.1,4.8,0.4,6.7s0.8,3.7,1.6,5.2c0.7,1.6,1.7,3.1,2.8,4.6c1.1,1.5,2.4,3,3.9,4.7v1.8
		h-39.2V208c1.6-1.6,3-3.2,4.1-4.7s2-3,2.6-4.6s1-3.3,1.2-5.2s0.3-4.2,0.3-6.7v-73c0-5.2-0.7-9.3-2.2-12.2c-1.5-3-4.2-5.9-8-8.9
		v-1.8L290.6,86.4z"/>
	<path class="st0" d="M345.2,143.2v43.6c0,2.5,0.1,4.8,0.4,6.7s0.8,3.7,1.6,5.2c0.7,1.6,1.7,3.1,2.8,4.6c1.1,1.5,2.4,3,3.9,4.7v1.8
		h-39.2V208c1.6-1.6,3-3.2,4.1-4.7s2-3,2.6-4.6s1-3.3,1.2-5.2s0.3-4.2,0.3-6.7v-16.2c0-5.2-0.7-9.3-2.2-12.3s-4.2-5.9-8-8.9v-1.8
		L345.2,143.2z M318.2,114.5c0-4.3,1.3-7.8,3.9-10.4s6.1-3.9,10.4-3.9s7.8,1.3,10.4,3.9s3.9,6.1,3.9,10.4s-1.3,7.8-3.9,10.5
		s-6.1,4-10.4,4s-7.8-1.3-10.4-4C319.5,122.3,318.2,118.8,318.2,114.5z"/>
	<path class="st0" d="M399.8,105v27c2.2-3.7,4.6-7.2,7-10.5c2.5-3.3,5.2-6.1,8.2-8.6s6.4-4.4,10-5.8s7.8-2.1,12.4-2.1
		c8.3,0,15.3,2.1,20.8,6.3c5.6,4.2,8.4,10.8,8.4,19.7l0.4,55.7c0,2.5,0.1,4.8,0.4,6.7s0.8,3.7,1.6,5.2c0.7,1.6,1.7,3.1,2.8,4.6
		c1.1,1.5,2.4,3,3.9,4.7v1.8h-39.2v-1.8c1.6-1.6,3-3.2,4.1-4.7s2-3,2.6-4.6s1-3.3,1.2-5.2s0.3-4.2,0.3-6.7l-0.4-51.2
		c0-5.2-1.5-9.6-4.6-13.3c-3-3.6-6.9-5.5-11.7-5.5c-3.4,0-6.5,0.6-9.2,1.9s-5.3,2.9-7.6,5c-2.3,2.1-4.4,4.4-6.2,7
		c-1.9,2.6-3.6,5.2-5.2,7.9v48.1c0,2.5,0.1,4.8,0.4,6.7s0.8,3.7,1.6,5.2c0.7,1.6,1.7,3.1,2.8,4.6c1.1,1.5,2.4,3,3.9,4.7v1.8h-39.2
		v-1.8c1.6-1.6,3-3.2,4.1-4.7s2-3,2.6-4.6s1-3.3,1.2-5.2s0.3-4.2,0.3-6.7v-54.3c0-5.2-0.7-9.3-2.2-12.3s-4.2-5.9-8-8.9v-1.8
		L399.8,105z"/>
	<g>
		<path class="st0" d="M157.5,70.4c-5.8-2.7-12.7-0.1-15.4,5.7L88,202.4c-13.8,30.1-51.7,25.5-51.7,25.5s46.6,21.3,66.7-18.6
			l60.2-123.5C165.9,80,163.3,73.1,157.5,70.4z M158,85.2l-2.1,4.5c-1.5,3.3-5.5,4.8-8.8,3.3s-4.8-5.5-3.3-8.8l2.1-4.5
			c1.5-3.3,5.5-4.8,8.8-3.3C158.1,78,159.5,81.9,158,85.2z"/>
	</g>
	<path class="st0" d="M157.6,97.4c-1.5-0.8-2.9-1.8-4.2-2.7c-0.6-0.4-1.2-0.8-1.7-1.3c0,0,0.5-1.7,2.1-3.3s3.3-2.8,3.3-2.8
		c0.3,0.2,0.6,0.4,0.9,0.5c1.1,0.7,2.2,1.3,3.4,1.9"/>
</g>
</svg>
