<?xml version="1.0" encoding="utf-8"?>
<!-- Generator: Adobe Illustrator 25.2.1, SVG Export Plug-In . SVG Version: 6.00 Build 0)  -->
<svg version="1.1" id="Layer_1" xmlns="http://www.w3.org/2000/svg" xmlns:xlink="http://www.w3.org/1999/xlink" x="0px" y="0px"
	 viewBox="0 0 512 512" style="enable-background:new 0 0 512 512;" xml:space="preserve">
<style type="text/css">
	.st0{fill:#435CCC;stroke:#231F20;stroke-width:0.6656;stroke-miterlimit:10;}
	.st1{fill:#FFFFFF;}
</style>
<circle class="st0" cx="256" cy="256" r="246"/>
<g>
	<path class="st1" d="M318.5,126.9c0-4.6,0.3-8.7,0.8-12.2c0.5-3.5,1.5-6.7,2.9-9.6c1.4-2.8,3.1-5.6,5.1-8.3c2-2.7,4.4-5.6,7.1-8.6
		V85h-71.7v3.3c3,3,5.5,5.8,7.5,8.6c2,2.7,3.6,5.5,4.7,8.3c1.1,2.9,1.8,6,2.2,9.6c0.4,3.5,0.6,7.6,0.6,12.2v108.6l40.7-94.9
		L318.5,126.9z"/>
	<path class="st1" d="M274.4,371.8c-2.3,8.3-5.8,15.9-10.6,23c-4.8,7.1-10.7,13.2-17.9,18.3c-7.2,5.2-15.5,8.4-25,9.8v4.1
		c11.9,0,23.8-2,35.6-5.9c11.8-3.9,22.3-9.5,31.6-16.7c9.2-7.2,16.7-15.9,22.4-26.1c5.7-10.2,8.6-21.4,8.6-33.6l-0.1-74.2
		l-41.4,84.8C277,360.7,275.9,366.2,274.4,371.8z"/>
	<g>
		<path class="st1" d="M360.6,117.4c-10.6-4.9-23.2-0.2-28.1,10.4l-99.1,230.8c-25.2,55-94.5,46.5-94.5,46.5s85.3,39.1,122-33.9
			l110.1-225.7C375.9,134.9,371.3,122.3,360.6,117.4z M361.6,144.5l-3.8,8.2c-2.8,6.1-10,8.7-16,6c-6.1-2.8-8.7-10-6-16l3.8-8.2
			c2.8-6.1,10-8.7,16-6C361.7,131.2,364.3,138.4,361.6,144.5z"/>
	</g>
</g>
</svg>
