<svg width="122" height="101" viewBox="0 0 122 101" fill="none" xmlns="http://www.w3.org/2000/svg">
<path opacity="0.2" d="M118.875 27.57C125.617 35.1563 108.471 83.4692 97.0581 88.6099C89.0955 92.2034 31.0219 70.6922 30.491 57.9153C29.6417 38.7998 110.435 18.0871 118.875 27.57Z" fill="#00A4EA"/>
<path d="M107.407 51.6765C107.407 51.8263 107.301 51.976 107.142 52.0259C106.399 52.2755 105.655 52.525 104.965 52.7746C104.594 50.9778 103.851 49.231 103.214 47.6837C103.16 47.534 102.948 47.5839 103.001 47.7337C103.532 49.4805 103.638 51.3272 103.904 53.1239C103.691 53.1738 103.532 53.2737 103.32 53.3236C103.16 52.3753 102.736 51.5268 102.523 50.6783C102.47 50.5286 102.364 50.5785 102.417 50.7283C102.63 51.6266 102.789 52.5749 102.842 53.4733C101.621 53.8726 100.347 54.2719 99.1261 54.721C98.8076 53.074 98.3298 51.3771 97.852 49.78C97.799 49.6302 97.6928 49.6302 97.7459 49.8299C98.1706 51.5268 98.3298 53.2238 98.5952 54.8708C92.4375 56.8672 86.2798 58.8636 80.069 60.7602C79.7505 59.9117 79.432 59.1131 79.1666 58.2647C79.1666 58.2147 79.0604 58.2147 79.0604 58.3146C79.2727 59.163 79.432 60.0614 79.5912 60.9099C79.2727 61.0097 78.9011 61.1095 78.5826 61.2093C78.5296 61.0097 78.4765 60.86 78.3703 60.6603C77.9456 59.3128 77.7333 57.9652 77.1494 56.6176C77.1494 56.5677 77.0432 56.5677 77.0963 56.6176C77.4679 58.2147 77.6271 59.8119 77.9456 61.3591C77.2025 61.5587 76.4593 61.8083 75.7161 62.0079C75.5569 62.0578 75.3445 61.958 75.2914 61.8083C74.0705 58.0151 71.7879 53.3735 72.6903 49.3308C73.115 47.534 73.9644 46.0866 75.0791 44.6891C76.7778 42.543 69.8769 35.9549 74.3359 26.8713C75.1322 25.2243 77.4679 23.6271 79.1666 23.0781C88.7216 20.0336 93.5523 26.1226 95.6225 31.3133C96.3126 33.11 96.6842 34.9567 96.7904 36.8034C97.0558 40.6464 101.302 41.5947 102.63 42.2436C106.239 44.1401 107.301 48.1329 107.407 51.6765Z" fill="#435CCC"/>
<path d="M104.912 43.3915C102.683 41.2453 99.0729 41.0956 97.852 37.9014C97.3211 36.454 97.0557 34.9567 96.4718 33.5592C95.9409 32.2615 95.3039 31.0637 94.5077 29.8659C92.8621 27.3704 90.7387 25.4239 88.2969 23.7769C90.8449 25.5237 93.0213 27.9693 94.6669 30.6644C95.4632 31.9621 96.1002 33.3596 96.631 34.807C97.1088 36.1545 97.268 37.6019 97.9581 38.8497C99.0198 40.7462 101.037 41.0457 102.736 41.994C105.655 43.5911 107.46 46.5857 107.991 49.8299C107.991 49.8798 108.097 49.8798 108.097 49.8299C107.885 47.4841 106.717 45.0884 104.912 43.3915Z" fill="#435CCC"/>
<path d="M73.6467 29.5165C72.8504 32.1119 72.7442 34.8569 73.222 37.602C73.4874 38.9994 73.9121 40.347 74.1244 41.7944C74.3898 43.6411 74.0713 45.0884 73.3282 46.6856C70.9394 51.6267 71.8418 57.1168 74.4429 62.1077C74.496 62.2076 74.7083 62.1577 74.6553 62.0079C73.3282 59.1132 72.2134 56.1185 72.1603 52.9742C72.1603 51.3771 72.3727 49.7301 72.9566 48.2827C73.4343 47.1348 74.1244 46.1366 74.4429 44.9387C75.0268 42.8425 74.2306 40.6465 73.7528 38.5003C73.0627 35.5057 73.1158 32.5111 73.6467 29.5165Z" fill="#435CCC"/>
<path d="M58.0414 82.6207C61.014 82.6207 72.2678 78.2286 76.7268 75.1841C80.4427 72.6387 84.8487 63.9045 86.7066 58.3645C87.0782 57.1666 87.3967 56.1684 87.5028 55.3699C88.8299 47.4342 83.0438 46.9351 80.4427 49.6801C79.1687 50.9778 78.0539 52.7246 76.9923 54.6212C74.0196 60.1113 71.9493 66.8991 71.153 67.498C70.0383 68.2965 57.192 76.4818 55.5995 77.8293C53.9539 79.1769 55.0687 82.6207 58.0414 82.6207Z" fill="#E9AB9E"/>
<path d="M76.9922 54.6212C80.4957 55.1702 83.84 56.4679 86.7065 58.3645C87.0781 57.1666 87.3966 56.1684 87.5028 55.3699C88.8299 47.4342 83.0437 46.9351 80.4426 49.6801C79.1686 50.9279 78.0539 52.6747 76.9922 54.6212Z" fill="#C27C88"/>
<path d="M77.2567 52.9742C77.4159 53.4234 83.6267 53.0241 87.2895 58.9634C87.608 59.5124 89.7313 53.5731 89.3067 50.329C88.882 47.0848 86.2278 45.6374 83.1489 47.0848C80.0701 48.5322 77.0443 52.3254 77.2567 52.9742Z" fill="#00A4EA"/>
<path d="M58.3591 76.0825C58.3591 76.0825 51.8829 79.0272 51.1397 79.2768C50.3965 79.5263 46.8399 78.6778 45.5659 79.127C44.2919 79.6261 40.8414 82.2714 41.9031 82.9701C42.9648 83.6688 45.619 83.7687 46.0967 83.4193C46.5745 83.1198 50.7681 83.1198 50.7681 83.1198C54.1655 83.9683 61.7034 81.7223 61.7034 81.7223C61.7034 81.7223 61.5441 78.578 58.3591 76.0825Z" fill="#C88E6A"/>
<path d="M117.867 97.2444H97.0047H79.9648C82.0882 88.3604 86.2818 80.9737 86.2818 80.9737L104.808 76.3321C104.861 76.3321 115.425 83.02 117.867 97.2444Z" fill="#0079A3"/>
<path d="M95.7828 97.2444H95.0928C94.8804 95.6972 94.8273 94.0003 94.7212 92.3033C92.1731 92.1037 89.8905 90.6064 88.0857 89.0093C87.9264 88.9094 88.1388 88.7098 88.298 88.8096C90.3152 90.4067 92.5978 91.0057 94.9866 91.8541C95.0397 91.8541 95.0397 91.904 95.0928 91.904C95.1458 91.904 95.1458 91.9539 95.1989 92.0038C95.5705 93.5511 95.6767 95.4975 95.7828 97.2444Z" fill="#15244C"/>
<path d="M87.3419 46.436C84.5816 47.1846 82.7767 49.9297 81.5027 52.7246C80.2287 55.4697 77.256 61.2093 77.5745 65.3519C77.8399 68.5461 82.8829 71.5407 82.8829 71.5407C82.8829 71.5407 85.2186 79.3266 86.3333 80.9737C87.9789 83.4193 98.9142 86.2142 105.125 76.931C105.762 75.9827 104.594 57.9153 101.038 51.9261C98.171 47.1846 93.9243 44.6891 87.3419 46.436Z" fill="#00A4EA"/>
<path d="M95.4631 68.9454C93.6052 69.7439 92.1188 70.8419 89.9424 70.9418C88.0845 70.9917 86.2796 70.3928 84.5809 69.7938C84.5278 69.7439 84.4748 69.8937 84.5278 69.8937C86.2265 70.8919 88.1375 71.5407 90.1547 71.391C92.225 71.2911 93.8175 70.1931 95.4631 69.0452C95.6224 69.0452 95.5162 68.8955 95.4631 68.9454Z" fill="#435CCC"/>
<path d="M86.0674 70.9418C85.2712 70.4926 84.0502 70.3928 83.2009 70.7421C83.1478 70.792 83.1478 70.8919 83.254 70.8919C83.6786 70.8419 84.1033 70.792 84.5811 70.8419C85.0588 70.8919 85.5366 71.0416 86.0143 71.1913C86.1205 71.1913 86.2267 70.9917 86.0674 70.9418Z" fill="#435CCC"/>
<path d="M91.4311 45.887C92.4397 46.0367 93.289 48.1329 93.289 48.7318C93.1828 50.1293 86.4943 56.3681 84.6363 56.3182C83.0438 56.3182 83.8401 49.0812 84.7956 48.3825C85.8042 47.6837 90.5817 45.7872 91.4311 45.887Z" fill="#E9AB9E"/>
<path d="M93.1289 82.9201C91.908 77.4301 91.1117 71.4908 91.6425 65.9009C91.908 63.0061 92.2795 60.1612 92.6511 57.2664C92.9696 54.6212 93.4474 51.976 93.5005 49.2808C93.5536 47.3343 93.0227 45.1882 91.271 44.1401C89.6254 43.1918 87.8736 43.9904 86.4403 45.0385C84.5293 46.4859 83.4676 48.5821 82.5652 50.7781C81.5566 53.2237 80.495 55.7192 79.8579 58.3145C78.4247 64.4036 78.5308 69.8936 79.4333 75.9328C79.4864 76.1324 80.7073 76.5816 80.7073 76.3819C80.0172 71.5407 79.4864 66.4499 80.1234 61.5088C80.4419 59.0133 81.132 56.6675 82.0344 54.3717C82.8837 52.1257 83.68 49.6302 85.0602 47.6837C86.3872 45.837 89.413 43.3416 91.4302 45.5376C93.0758 47.3343 92.4919 50.2291 92.2795 52.4751C91.7487 57.3662 90.9524 62.2075 90.5809 67.0987C90.1562 72.3392 90.2624 77.6796 91.6425 82.7205C91.8549 83.1198 93.2351 83.3693 93.1289 82.9201Z" fill="#435CCC"/>
<path d="M85.1658 49.6801C85.1658 49.6801 85.7497 51.2273 87.2891 51.0277C89.9433 50.6284 91.5358 48.0331 91.642 47.4342C91.6951 47.1846 91.5358 44.9387 91.1642 42.7925C91.1111 42.5929 91.1111 42.3434 91.0581 42.1437C91.005 41.9441 91.005 41.7444 90.9519 41.5448C90.8988 41.2952 90.8457 40.9958 90.7926 40.7462C90.368 38.7498 89.9964 37.003 89.9964 37.003L89.094 37.552L82.8301 41.7444L84.3164 46.7853L84.4226 47.0848L84.4757 47.1846L84.9003 48.7318L85.1658 49.6801Z" fill="#E9AB9E"/>
<path d="M84.4222 47.0349C85.3247 47.1347 86.2271 47.0349 87.1826 46.7354C89.1998 46.0367 90.3676 44.4895 91.217 42.7426C91.1639 42.543 91.1639 42.2934 91.1108 42.0938C91.0577 41.8942 91.0577 41.6945 91.0046 41.4949C90.9515 41.2453 90.8985 40.9459 90.8454 40.6963C90.4207 38.6999 90.0491 36.9531 90.0491 36.9531L89.1467 37.5021L82.8828 41.6945L84.3692 46.7354L84.4222 47.0349Z" fill="#C27C88"/>
<path d="M74.7613 37.1527C77.5217 46.0866 82.9893 45.0884 84.688 44.9387C86.599 44.739 93.6591 42.4931 91.9074 33.3596C90.1556 24.226 84.8472 22.6289 80.5474 23.5772C76.2476 24.5255 72.0009 28.2188 74.7613 37.1527Z" fill="#E9AB9E"/>
<path d="M82.6719 35.1563C82.6719 35.1563 82.725 35.1563 82.725 35.2062C82.8311 35.855 83.0435 36.5538 83.6805 36.6536V36.7035C82.9373 36.6536 82.6719 35.7552 82.6719 35.1563Z" fill="#435CCC"/>
<path d="M83.1498 34.3577C84.2114 34.1082 84.6892 36.1046 83.7337 36.3042C82.7251 36.6037 82.2473 34.6073 83.1498 34.3577Z" fill="#435CCC"/>
<path d="M83.4676 34.3577C83.68 34.4077 83.8923 34.5075 84.1047 34.4077C84.317 34.3577 84.4232 34.1082 84.4762 33.8586H84.5293C84.6886 34.208 84.6886 34.5574 84.3701 34.8069C84.0516 35.0066 83.68 34.8069 83.4146 34.5075C83.3615 34.4576 83.4146 34.3577 83.4676 34.3577Z" fill="#435CCC"/>
<path d="M78.2667 36.0048L78.2136 36.0547C78.4259 36.6537 78.5852 37.3524 78.1074 37.7517V37.8016C78.8506 37.4522 78.6383 36.5039 78.2667 36.0048Z" fill="#435CCC"/>
<path d="M77.5234 35.5556C76.4617 35.8052 77.0987 37.7516 78.0542 37.552C79.0097 37.3024 78.3727 35.356 77.5234 35.5556Z" fill="#435CCC"/>
<path d="M77.205 35.7053C77.0457 35.855 76.9395 36.0547 76.7272 36.1046C76.5149 36.1545 76.2494 36.0048 76.0902 35.855C76.0902 35.855 76.0371 35.855 76.0371 35.905C76.0902 36.2543 76.3025 36.6037 76.7272 36.5538C77.0988 36.5538 77.3111 36.1545 77.3111 35.8051C77.3111 35.7552 77.258 35.6554 77.205 35.7053Z" fill="#435CCC"/>
<path d="M84.1598 39.5983C84.0537 39.7979 84.0006 40.0475 83.7882 40.1473C83.5759 40.2471 83.2574 40.2471 83.0451 40.2471C83.0451 40.2471 82.992 40.297 83.0451 40.297C83.3105 40.4467 83.6821 40.4967 83.9475 40.3469C84.2129 40.1972 84.266 39.8977 84.2129 39.6482C84.2129 39.5484 84.1598 39.5484 84.1598 39.5983Z" fill="#6A9988"/>
<path d="M76.622 34.0583C76.8343 33.9585 76.9936 33.8586 77.2059 33.7588C77.4182 33.659 77.6306 33.5592 77.7367 33.3096C77.7898 33.2098 77.7367 33.0102 77.6306 32.9104C77.3651 32.7606 77.0466 32.8105 76.7281 32.9603C76.4096 33.11 76.2504 33.3096 76.0911 33.6091C75.985 33.9086 76.3035 34.1581 76.622 34.0583Z" fill="#435CCC"/>
<path d="M83.4681 32.561C83.2558 32.561 83.0434 32.561 82.778 32.561C82.5126 32.561 82.3003 32.561 82.0879 32.4612C81.9818 32.3614 81.9287 32.1617 81.9818 32.0619C82.141 31.8123 82.4595 31.7125 82.778 31.7125C83.0965 31.7125 83.3619 31.7624 83.6804 31.9621C83.9459 32.1617 83.7335 32.561 83.4681 32.561Z" fill="#435CCC"/>
<path d="M81.293 39.2989C81.293 39.2989 81.8769 39.798 82.567 39.8479C82.8324 39.8978 83.0447 39.8479 83.3102 39.748C83.7879 39.4985 83.7348 39.0493 83.5225 38.65C83.3632 38.3506 83.1509 38.101 83.1509 38.101C83.1509 38.101 82.5139 38.9994 81.293 39.2989Z" fill="#435CCC"/>
<path d="M82.5665 39.8978C82.832 39.9477 83.0443 39.8978 83.3097 39.798C83.7875 39.5484 83.7344 39.0992 83.522 38.7C82.9912 38.8497 82.5135 39.3488 82.5665 39.8978Z" fill="#C27C88"/>
<path d="M80.7608 38.2008C80.7608 38.2008 80.92 39.1491 81.0793 39.5484C81.0793 39.5983 81.1854 39.5983 81.3447 39.5484C82.194 39.4486 82.8841 38.9495 83.2026 38.2008C83.2026 38.1509 83.1495 38.101 83.0964 38.1509C82.6187 38.7498 82.0348 39.0493 81.2916 39.2489C81.2385 39.1491 81.0793 37.6518 80.9731 37.6518C80.7077 37.7017 80.283 38.0012 80.0176 38.1509C79.5929 36.2044 79.5398 34.208 79.1152 32.2616C79.1152 32.2116 79.009 32.2116 79.009 32.2616C78.9559 34.3578 79.3275 36.6037 79.6991 38.65C79.7522 38.9495 80.6015 38.3506 80.7608 38.2008Z" fill="#C27C88"/>
<path d="M84.9543 23.3277C84.9543 23.3277 79.5929 22.4293 76.9387 24.4756C74.3376 26.472 72.9043 29.217 73.5944 33.9086C73.7006 34.6073 76.7264 32.4113 77.9473 31.1136C79.1682 29.816 80.4953 26.7215 80.4953 26.7215C80.4953 26.7215 79.3275 30.8142 79.5929 30.914C79.8583 31.0138 81.7693 29.217 82.2471 27.5201C82.2471 27.5201 83.7334 29.766 84.9543 30.8142C86.1753 31.8623 86.8123 32.2116 87.0246 32.2615C87.29 32.3115 85.4321 29.3668 85.3259 29.1671C85.2198 28.9675 87.927 32.1118 89.2541 32.8605C90.5812 33.6091 91.696 33.659 92.0145 33.6091C92.3861 33.5093 93.1823 28.3686 90.3689 25.5736C87.8209 23.0282 84.9543 23.3277 84.9543 23.3277Z" fill="#435CCC"/>
<path d="M90.6875 34.8069C90.6875 34.8069 91.5899 31.3632 93.1824 31.5628C94.7749 31.7624 94.8811 36.2044 93.554 37.3024C92.2269 38.4005 91.1653 37.2525 91.1653 37.2525L90.6875 34.8069Z" fill="#E9AB9E"/>
<path d="M93.1815 32.8605C92.2791 33.7089 92.1198 34.8569 92.1198 35.9549C92.2791 35.4558 92.6507 35.1064 93.3408 35.2562C93.3938 35.2562 93.3408 35.3061 93.3408 35.3061C92.863 35.356 92.5976 35.5556 92.4383 36.0048C92.3322 36.3043 92.2791 36.6536 92.2791 37.003C92.2791 37.1028 92.0667 37.1028 92.0667 37.003C92.0667 37.003 92.0667 37.003 92.0667 36.9531C91.4297 35.7053 91.7482 33.5592 93.1815 32.8605Z" fill="#C27C88"/>
<path d="M64.4644 70.3928L64.199 76.2322L63.9336 70.3928H64.4644Z" fill="#435CCC"/>
<path d="M32.6668 43.1419C40.2577 46.985 48.6981 43.641 56.7137 44.6891C58.3062 44.8888 60.7481 45.1882 61.9159 46.3861C63.0307 47.534 63.3492 49.4306 63.5615 50.9279C63.7739 52.8743 63.6677 54.8707 63.7208 56.8172C63.7739 59.0632 64.2516 61.0596 64.9948 63.2057C66.375 67.1985 66.6935 71.2412 65.0479 75.1841C64.9948 75.2839 64.8886 75.234 64.8886 75.1342C66.3219 71.1414 66.1095 67.2484 64.7294 63.3055C64.1454 61.6585 63.6677 60.0115 63.5084 58.3145C63.3492 56.418 63.4554 54.5214 63.4023 52.6248C63.2961 50.6783 63.1369 48.1828 61.7036 46.6855C60.3234 45.2381 57.1915 45.0385 55.2274 44.8888C51.2461 44.6392 47.2648 45.288 43.2835 45.3879C39.6207 45.4877 35.8518 45.1383 32.6668 43.2916C32.6137 43.1918 32.6137 43.1419 32.6668 43.1419Z" fill="white"/>
<path d="M62.9246 50.2291C62.9246 50.2291 63.2431 46.2363 63.0839 46.0367C62.9246 45.8371 60.9074 45.6873 60.642 45.7871C60.4297 45.9369 60.4297 50.4288 60.4297 50.4288L62.9246 50.2291Z" fill="#435CCC"/>
<path d="M60.2715 68.2466C60.2715 68.2466 60.5369 69.3946 60.8023 70.3429C61.0147 70.9418 61.1739 71.4409 61.3332 71.5407C61.7047 71.7902 66.8008 71.2911 67.2785 71.0416C67.4909 70.9418 67.597 70.2929 67.7032 69.5443C67.8094 68.596 67.8094 67.498 67.8094 67.498L60.2715 68.2466Z" fill="#435CCC"/>
<path opacity="0.5" d="M60.2715 68.2466C60.2715 68.2466 60.5369 69.3946 60.8023 70.3429C63.0849 70.0933 65.4206 69.8438 67.7032 69.5443C67.8094 68.596 67.8094 67.498 67.8094 67.498L60.2715 68.2466Z" fill="#435CCC"/>
<path d="M22.6877 62.8564C22.9001 63.0061 23.4309 63.106 24.0148 63.1559C24.8642 63.2557 25.7666 63.2557 25.7666 63.2557L24.6518 52.9742C24.6518 52.9742 23.6963 53.124 22.7939 53.3236C22.1569 53.4733 21.5199 53.7229 21.4137 53.9724C21.2014 54.5215 22.21 62.507 22.6877 62.8564Z" fill="#435CCC"/>
<path opacity="0.5" d="M22.8477 53.2736C23.2192 56.5677 23.5377 59.8617 24.0686 63.1558C24.9179 63.2556 25.8203 63.2556 25.8203 63.2556L24.7056 52.9742C24.7056 52.9242 23.7501 53.074 22.8477 53.2736Z" fill="#435CCC"/>
<path d="M23.697 53.5731C23.9624 56.1185 24.1217 58.3145 24.8648 62.6068C25.608 66.899 27.4129 66.7992 28.3684 67.5978C29.3239 68.3963 29.6424 69.1949 29.8016 71.0915C29.8547 71.9899 29.9078 73.038 29.9078 74.0861C29.9609 76.5317 29.8547 78.9273 29.8547 78.9273L39.3036 78.5281C39.3036 78.5281 39.2505 76.4318 39.1975 73.7866C39.1444 71.7403 39.1444 69.3945 39.1444 67.3981C39.1975 63.7547 39.3567 63.0061 42.701 62.3572C45.9922 61.7084 52.4684 61.908 54.9102 62.1576C57.299 62.4071 57.4052 64.0542 58.2545 66.5996C59.1039 69.0951 60.7495 69.0452 63.7752 68.7457C66.8541 68.4462 69.2429 68.3963 69.6145 66.9489C70.0391 65.5016 70.6761 55.7691 70.6761 53.1738C70.6761 49.181 68.1812 49.3307 65.8455 49.181C63.4567 49.0313 34.6853 49.0313 30.1732 49.1311C25.6611 49.2309 23.4316 51.0277 23.697 53.5731Z" fill="#435CCC"/>
<path opacity="0.5" d="M29.9082 78.9273L39.3571 78.5281C39.3571 78.5281 39.304 76.4318 39.2509 73.7866C36.1721 73.8365 33.0932 73.8864 30.0144 74.0362C29.9613 76.5317 29.9082 78.9273 29.9082 78.9273Z" fill="#435CCC"/>
<path d="M26.5627 82.2214C26.6158 82.471 26.6689 82.6706 26.722 82.9202C27.0405 84.4674 27.5182 85.8649 27.8898 86.0146C28.7392 86.4139 67.1718 86.0146 67.9681 85.5654C68.3396 85.3658 68.7112 84.0681 68.9236 82.6207C68.9236 82.5708 68.9236 82.5209 68.9767 82.471C69.2421 80.8739 69.2952 79.1769 68.8705 78.8775C67.1718 77.7795 29.907 77.6796 26.6158 78.1787C26.085 78.2786 26.2442 80.225 26.5627 82.2214Z" fill="#435CCC"/>
<path opacity="0.5" d="M26.5625 82.2214C26.6156 82.471 26.6687 82.6706 26.7218 82.9202C29.1636 82.9202 31.6055 82.8703 34.0473 82.8703C38.6125 82.8703 43.2308 82.8703 47.796 82.8703C54.8031 82.8703 61.8632 82.7704 68.8703 82.6706C68.8703 82.6207 68.8703 82.5708 68.9233 82.5209C61.9163 82.4211 54.8561 82.3712 47.796 82.3213C43.1246 82.3213 38.4533 82.3213 33.7819 82.3213C31.3931 82.2713 29.0044 82.2214 26.5625 82.2214Z" fill="#435CCC"/>
<path d="M35.1607 42.493C35.4792 42.5929 35.5323 48.6819 35.3731 48.6819C35.2138 48.6819 31.7103 48.7817 31.551 48.7318C31.3918 48.6819 30.7548 42.7925 30.914 42.6927C31.0733 42.5929 34.7891 42.3433 35.1607 42.493Z" fill="white"/>
<path d="M36.3825 42.4432L29.9062 42.6927" stroke="#00A4EA" stroke-width="2" stroke-miterlimit="10"/>
<path d="M36.7536 48.6819L30.2773 48.9315" stroke="#00A4EA" stroke-width="2" stroke-miterlimit="10"/>
<path d="M64.3582 76.2322C64.4113 76.2322 64.4643 76.3321 64.3582 76.3321C64.3051 76.3321 64.252 76.2322 64.3582 76.2322Z" fill="#9C9C9C"/>
<path opacity="0.5" d="M32.7196 56.1684C33.8875 56.1684 33.8875 57.8653 32.7196 57.8653C31.5518 57.8653 31.5518 56.1684 32.7196 56.1684Z" fill="#435CCC"/>
<path opacity="0.5" d="M63.9872 63.1558C65.1551 63.1558 65.1551 64.8528 63.9872 64.8528C62.8194 64.8528 62.8194 63.1558 63.9872 63.1558Z" fill="#435CCC"/>
<path opacity="0.5" d="M34.6317 69.5443C35.7996 69.5443 35.7996 71.2413 34.6317 71.2413C33.4639 71.2413 33.4639 69.5443 34.6317 69.5443Z" fill="#435CCC"/>
<path d="M30.4384 71.3411H28.5273V85.6652H30.4384V71.3411Z" fill="white"/>
<path d="M33.5173 85.6652H25.5016C25.0239 85.6652 24.6523 85.2659 24.7585 84.8167L24.8116 84.5173V84.4175L25.077 82.9202V82.8203L25.3424 81.373V81.2731L25.6078 79.8258V79.7259L25.8732 78.2785V78.1288L26.1387 76.6814V76.5317L26.4041 75.0843L26.4572 74.9346L26.7226 73.4872L26.7757 73.3375V73.1877C26.8287 72.8384 27.1472 72.5888 27.5188 72.5888H31.1816C31.5532 72.5888 31.8717 72.8384 31.9248 73.1877L31.9779 73.587L32.031 73.7866L32.3495 75.4337L32.4025 75.6333L32.721 77.2803L32.7741 77.48L33.0926 79.127L33.1457 79.3267L33.4642 80.9737L33.5173 81.1733L33.8358 82.8203L33.8889 83.02L34.2074 84.667L34.2605 84.8167V84.8667C34.3136 85.2659 33.942 85.6652 33.5173 85.6652Z" fill="#00A4EA"/>
<path d="M32.1894 73.7866C30.9685 73.4872 29.7476 73.0879 28.6328 72.5888H29.1106C30.1192 72.9881 31.1277 73.3375 32.1363 73.587L32.1894 73.7866Z" fill="#005C7C"/>
<path d="M32.5077 75.6333C30.4906 75.1841 28.5795 74.4854 26.8809 73.4872L26.9339 73.3375C28.6857 74.2858 30.5436 74.9845 32.5077 75.4337V75.6333Z" fill="#005C7C"/>
<path d="M32.8795 77.48C30.65 77.0308 28.5266 76.2322 26.5625 75.0843L26.6156 74.9346C28.5266 76.0326 30.65 76.8312 32.8264 77.2803L32.8795 77.48Z" fill="#005C7C"/>
<path d="M33.1981 79.3266C30.7032 78.8774 28.3675 77.9791 26.2441 76.6814V76.5317C28.3675 77.7794 30.6501 78.6279 33.0919 79.127L33.1981 79.3266Z" fill="#005C7C"/>
<path d="M33.5695 81.1733C30.8622 80.7241 28.2611 79.7259 25.9785 78.2785V78.1288C28.2611 79.5263 30.8091 80.4746 33.5164 80.9737L33.5695 81.1733Z" fill="#005C7C"/>
<path d="M33.8881 82.9701C30.9154 82.5708 28.102 81.4728 25.6602 79.8258V79.726C28.1551 81.2732 30.9154 82.3213 33.8351 82.8204L33.8881 82.9701Z" fill="#005C7C"/>
<path d="M34.2068 84.7668C30.9687 84.3676 27.9429 83.2196 25.3418 81.373V81.2731C27.996 83.02 30.9687 84.118 34.1537 84.6171L34.2068 84.7668Z" fill="#005C7C"/>
<path d="M30.9157 85.6652H30.2256C28.3677 85.0164 26.616 84.118 25.0234 82.9701V82.8702C26.8814 84.0681 28.8455 85.0164 30.9157 85.6652Z" fill="#005C7C"/>
<path d="M26.7219 85.6652H26.4565C25.8726 85.3159 25.3417 84.9166 24.7578 84.5173V84.4175C25.4479 84.8667 26.0849 85.2659 26.7219 85.6652Z" fill="#005C7C"/>
<path d="M121.637 85.1661H16V88.3604H121.637V85.1661Z" fill="#6A9988"/>
<path d="M118.027 88.3604H19.5566V100.289H118.027V88.3604Z" fill="#6A9988"/>
<g opacity="0.5">
<path d="M118.027 88.3604H19.5566V93.002H118.027V88.3604Z" fill="#6A9988"/>
</g>
<path d="M59.8477 82.9202C59.2107 83.4193 58.6268 83.9184 58.2021 84.6172C57.7244 85.3658 57.4589 86.2143 56.875 86.913C56.1318 87.8114 54.5924 88.2107 54.1147 86.8631C53.9023 86.3141 53.8492 85.7651 53.8492 85.2161C53.8492 84.0183 54.2208 82.9202 54.6986 81.8222C54.7517 81.7224 54.5924 81.6725 54.5393 81.7723C53.8492 83.07 53.3184 84.6172 53.4777 86.1145C53.5838 86.913 53.8492 88.1109 54.8048 88.4103C55.8664 88.8096 56.8219 87.9112 57.3528 87.1626C57.7774 86.5637 58.0429 85.9148 58.3614 85.266C58.786 84.4175 59.423 83.7188 60.1131 83.0201C60.007 82.9701 59.9008 82.8703 59.8477 82.9202Z" fill="white"/>
<path d="M63.6702 76.3321C62.9801 76.382 57.4594 76.7813 56.3446 78.029C55.1768 79.2768 53.6905 82.3213 54.062 82.5708C54.4336 82.8204 59.4766 83.6189 59.9543 83.6689C60.379 83.7188 62.927 80.7741 63.6171 80.0254C64.3072 79.2768 67.1737 78.4283 67.4392 78.1288C67.7046 77.7795 64.3072 76.2822 63.6702 76.3321Z" fill="white"/>
<path d="M63.8298 76.4818C62.0781 76.5816 60.0078 76.931 58.4153 77.5798C56.6635 78.2786 55.7611 79.8258 54.9648 81.373C54.9648 81.373 54.9648 81.4229 55.0179 81.373C56.0265 79.726 57.0882 78.1787 59.1054 77.5798C60.6448 77.1306 62.2904 76.931 63.8298 76.5816C63.8829 76.5816 63.8829 76.4818 63.8298 76.4818Z" fill="#F4F3E4"/>
<path d="M66.7498 77.9791C63.6179 78.7777 61.7068 79.7759 59.9551 83.02C59.9551 83.0699 59.9551 83.0699 60.0082 83.02C60.8044 81.922 61.6538 80.7741 62.7154 79.8757C63.8833 78.8775 65.3696 78.4782 66.856 77.9791C66.9091 78.029 66.856 77.9791 66.7498 77.9791Z" fill="#F4F3E4"/>
<path d="M65.475 77.7296C64.1479 78.1788 62.6615 78.5281 61.5998 79.3766C60.4851 80.2251 59.6358 81.4728 58.8926 82.6208C58.8926 82.6707 58.9457 82.6707 58.9457 82.6707C59.7419 81.6725 60.432 80.5745 61.3875 79.7759C62.5554 78.8276 64.0948 78.4283 65.475 77.8793C65.5811 77.7795 65.528 77.6797 65.475 77.7296Z" fill="#F4F3E4"/>
<path d="M64.8922 77.2804C63.3527 77.7296 61.5479 78.2287 60.2739 79.177C59.2122 79.9755 58.416 81.1235 57.832 82.2714C58.6814 81.1235 59.4245 79.8757 60.6986 79.0772C61.9726 78.2287 63.5651 77.8793 64.9453 77.3303C64.9983 77.3303 64.9453 77.2305 64.8922 77.2804Z" fill="#F4F3E4"/>
<path d="M64.1478 76.8312C62.396 77.2305 60.2726 77.5798 58.6801 78.578C57.5123 79.2768 56.7691 80.7242 56.2383 81.8721C56.2383 81.922 56.2914 81.922 56.2914 81.8721C57.0345 80.6243 57.8308 79.127 59.211 78.4782C60.7504 77.7296 62.4491 77.3303 64.0947 76.8811C64.2008 76.8811 64.2008 76.8312 64.1478 76.8312Z" fill="#F4F3E4"/>
<path d="M79.541 79.4764C82.5137 79.2767 100.456 78.6778 104.703 75.3838C108.684 72.2893 105.924 62.8564 104.066 56.5677C103.906 56.0686 103.8 55.6693 103.641 55.2701C100.721 46.7355 95.4661 44.8888 93.1835 47.8834C91.6972 49.9297 92.3342 55.0205 93.3428 60.0614C94.6168 66.1005 95.0414 67.5479 94.4575 67.9971C93.3958 68.8456 78.5855 73.1877 77.046 74.5852C75.5597 76.0326 76.5683 79.6261 79.541 79.4764Z" fill="#E9AB9E"/>
<path d="M93.3959 60.0614C96.6871 58.1149 100.244 56.3182 104.119 56.5677C103.96 56.0686 103.853 55.6693 103.694 55.2701C100.721 46.7355 95.4662 44.8888 93.1836 47.8834C91.6972 49.9297 92.3342 55.0205 93.3959 60.0614Z" fill="#C27C88"/>
<path d="M103.694 53.8227C103.482 54.2719 97.3774 52.9742 92.8122 58.3645C92.3875 58.8636 91.2728 52.7247 92.1752 49.5304C93.0776 46.3861 95.9972 45.2881 98.8107 47.1847C101.571 49.0812 103.96 53.2238 103.694 53.8227Z" fill="#00A4EA"/>
<path d="M81.0272 72.7885C81.0272 72.7885 74.3386 75.3838 73.5955 75.5834C72.8523 75.783 69.3488 74.7349 68.0217 75.1342C66.6946 75.5335 63.0849 78.029 64.0935 78.7776C65.1021 79.5263 67.7032 79.676 68.234 79.4764C69.6142 78.9274 72.9054 79.4265 72.9054 79.4265C76.2497 80.4247 83.8937 78.6279 83.8937 78.6279C83.8937 78.6279 84.053 75.4836 81.0272 72.7885Z" fill="#E9AB9E"/>
<path d="M103.058 73.038C103.482 72.7386 104.119 72.7386 104.438 73.1379C104.703 73.4872 104.597 74.0862 104.013 74.2359C103.588 74.3357 103.217 73.8366 103.588 73.5371C103.641 73.4872 103.695 73.5871 103.695 73.637C103.535 73.8865 103.854 74.0362 104.066 73.9364C104.225 73.8366 104.278 73.6869 104.278 73.5371C104.225 73.2876 103.96 73.1878 103.748 73.1878C103.482 73.1878 103.27 73.3375 103.164 73.5371C103.058 73.7867 103.111 74.0362 103.217 74.2359C103.217 74.2858 103.164 74.3357 103.111 74.2858C102.686 73.9863 102.686 73.3375 103.058 73.038Z" fill="#6A9988"/>
<path d="M78.3199 73.9364C77.099 74.2858 73.7016 75.5335 73.2239 75.5335C72.1622 75.5834 71.1536 75.1342 69.9858 74.9845C68.0217 74.735 66.4822 75.6333 65.1021 76.8312C65.049 76.8811 65.1021 76.931 65.1551 76.8811C66.2699 76.1324 67.2785 75.284 68.7648 75.1841C70.0919 75.0843 71.366 75.5335 72.693 75.6832C73.4362 75.7831 73.9671 75.5335 74.7102 75.284C75.9312 74.8847 77.1521 74.4854 78.373 73.9863C78.4261 73.9863 78.4261 73.8865 78.3199 73.9364Z" fill="#6A9988"/>
<rect width="40" height="41" rx="20" fill="#435CCC"/>
<path d="M19.94 27.5V14.7L21.34 16.1H17.14V13.5H23.18V27.5H19.94Z" fill="white"/>
</svg>
