<svg width="125" height="95" viewBox="0 0 125 95" fill="none" xmlns="http://www.w3.org/2000/svg">
<path opacity="0.2" d="M112.269 14.9134C121.505 20.0541 120.603 73.3081 110.995 82.242C104.306 88.4807 39.597 87.3328 34.7664 75.0549C27.6001 56.5882 100.75 8.47502 112.269 14.9134Z" fill="#00A4EA"/>
<path d="M108.076 33.0307C106.961 34.2285 105.263 35.2267 103.829 36.0253C97.4064 39.6188 89.3907 40.3176 82.4367 37.8221C81.1096 37.3729 79.5702 36.724 78.7209 35.6759C77.8715 34.6777 79.0394 33.3801 79.411 32.3819C80.6319 29.1377 80.685 25.6939 81.2689 22.35C81.7997 19.2556 82.8614 16.211 85.3563 14.0649C85.8872 13.6157 86.418 13.2164 87.002 12.917C87.002 12.8671 87.055 12.8671 87.1081 12.8172C87.1612 12.8172 87.2143 12.7673 87.2674 12.7673C88.1167 12.3181 89.0191 12.0186 89.9216 11.819C92.5758 10.9705 95.4423 10.5712 98.0964 11.6692C101.6 13.1166 102.715 16.9098 103.67 20.104C104.679 23.5977 105.422 27.2411 107.333 30.4354C107.758 31.2339 108.926 32.1323 108.076 33.0307Z" fill="#435CCC"/>
<path d="M108.661 31.184C107.228 28.7883 106.379 26.193 105.635 23.5478C104.945 21.0523 104.574 18.4071 103.459 16.0114C101.92 12.5676 97.6197 10.4215 93.7446 11.8189C93.5853 11.8689 93.6384 12.1184 93.7977 12.0685C96.0803 11.5195 98.4691 11.7191 100.433 13.0168C102.557 14.4143 103.353 16.6602 103.99 18.9561C105.105 23.1485 105.954 27.5406 108.502 31.2339C108.608 31.2838 108.714 31.2339 108.661 31.184Z" fill="#435CCC"/>
<path d="M88.9131 12.0186C84.5071 11.7192 82.2776 16.9098 81.3221 20.104C79.8889 24.7457 79.995 29.6868 78.084 34.2286C78.084 34.2785 78.1371 34.2785 78.1371 34.2286C79.995 30.5851 80.2074 26.5424 81.0567 22.6495C81.5344 20.4534 82.2245 18.2574 83.2862 16.261C84.5602 14.015 86.312 12.6675 88.9662 12.1684C89.0723 12.2183 89.0193 12.0685 88.9131 12.0186Z" fill="#435CCC"/>
<path d="M86.8406 50.4493C86.5752 50.6489 86.3098 50.8485 85.9913 51.0981C80.9483 54.8413 71.1278 63.326 67.1465 60.6309C62.9529 57.786 56.689 45.4583 55.7866 43.0127C54.8842 40.5671 58.2285 38.6206 59.9271 39.5689C61.6789 40.5172 69.0575 48.1035 70.1192 48.8022C70.5969 49.1017 73.0919 47.2051 77.0201 44.7096C77.3386 44.51 77.6571 44.3103 77.9756 44.1107C82.2223 41.4655 86.9998 38.6705 89.8664 38.8701C90.1849 38.8701 90.5034 38.97 90.7688 39.0199C94.2192 40.1678 93.8476 45.3085 86.8406 50.4493Z" fill="#E9AB9E"/>
<path d="M86.84 50.4493C86.5746 50.6489 86.3092 50.8485 85.9907 51.0981C85.4068 50.0999 84.7167 49.1516 83.8674 48.353C81.7971 46.3067 79.0898 45.4084 77.0195 44.7096C77.338 44.51 77.6566 44.3103 77.9751 44.1107C82.2218 41.4655 86.9993 38.6705 89.8658 38.8701C90.1843 38.8701 90.5028 38.97 90.7682 39.0199C94.2187 40.1678 93.8471 45.3085 86.84 50.4493Z" fill="#C27C88"/>
<path d="M69.3222 59.0837C69.0568 58.6844 68.4197 58.4847 67.9951 58.7842C67.6235 59.0337 67.5704 59.6327 68.0482 59.9321C68.4198 60.1318 68.9506 59.7824 68.6852 59.3831C68.6321 59.3332 68.5259 59.3831 68.579 59.433C68.6321 59.6826 68.2605 59.7325 68.1544 59.5828C68.0482 59.4829 68.0482 59.2833 68.1013 59.1336C68.2074 58.9339 68.5259 58.884 68.7383 58.9838C68.9506 59.0837 69.1098 59.2833 69.1629 59.5328C69.216 59.7824 69.0568 60.0319 68.8975 60.1817C68.8444 60.2316 68.8975 60.2815 68.9506 60.2815C69.3753 60.0819 69.5876 59.4829 69.3222 59.0837Z" fill="#C27C88"/>
<path d="M61.7329 41.4156L59.8219 38.6206C59.8219 38.6206 59.3441 35.9255 58.3886 35.1269C57.38 34.3783 56.9023 30.1359 55.2567 30.3356C53.6111 30.4853 51.8062 34.9772 52.1247 36.6242C52.3902 38.2712 54.8851 40.5172 54.8851 40.5172L56.3715 44.3603C56.3184 44.3103 60.7774 43.7114 61.7329 41.4156Z" fill="#E9AB9E"/>
<path d="M86.8412 50.4493C86.3635 50.3495 85.8327 45.4084 79.5688 42.8131C78.9849 42.5635 87.1597 37.9718 90.3979 37.9718C93.636 37.9718 94.5384 41.0163 93.4236 43.8113C92.362 46.706 87.4782 50.5491 86.8412 50.4493Z" fill="#00A4EA"/>
<path d="M118.693 89.379H97.8309H80.791C81.5873 80.0958 86.7364 71.7608 86.7364 71.7608L105.634 68.4668C105.687 68.4169 116.251 75.1547 118.693 89.379Z" fill="#0079A3"/>
<path d="M96.6621 89.379H95.9189C95.7066 87.8318 95.6535 86.1349 95.5473 84.438C92.9993 84.2383 90.7167 82.741 88.9119 81.1439C88.7526 81.0441 88.965 80.8444 89.1242 80.9443C91.1414 82.5414 93.424 83.1403 95.8128 83.9888C95.8658 83.9888 95.8658 84.0387 95.9189 84.0387C95.972 84.0387 95.972 84.0886 96.0251 84.1385C96.3967 85.6857 96.5559 87.5823 96.6621 89.379Z" fill="#B03E2F"/>
<path d="M92.3097 37.4228C89.4431 37.8221 87.3198 40.3176 85.6211 42.863C83.9224 45.4583 80.2065 50.6988 79.888 54.8414C79.6757 58.0356 84.2409 61.679 84.2409 61.679C84.2409 61.679 85.4088 69.7145 86.2581 71.4614C87.5321 74.1066 97.9896 78.299 105.421 69.8643C106.218 69.0158 107.651 50.9484 104.997 44.5599C102.979 39.519 99.1044 36.5244 92.3097 37.4228Z" fill="#00A4EA"/>
<path d="M97.0881 60.7807C95.124 61.3297 93.4784 62.2281 91.355 62.0284C89.4971 61.8787 87.8515 61.0302 86.2059 60.1818C86.1529 60.1318 86.0998 60.2317 86.1528 60.2816C87.6923 61.4794 89.4971 62.3778 91.5143 62.5275C93.5846 62.6773 95.3363 61.8288 97.1412 60.9304C97.1943 60.8306 97.1943 60.7308 97.0881 60.7807Z" fill="#0079A3"/>
<path d="M87.533 61.4794C86.7898 60.9304 85.6219 60.6808 84.7195 60.9304C84.6664 60.9304 84.6664 61.0801 84.7195 61.0801C85.1442 61.0801 85.6219 61.0801 86.0466 61.1799C86.5243 61.2798 86.949 61.4794 87.4268 61.679C87.533 61.7789 87.6391 61.5792 87.533 61.4794Z" fill="#0079A3"/>
<path d="M98.9983 40.9664C97.565 42.2142 96.0256 43.1126 94.1146 43.5118C91.7258 43.961 88.8062 43.1625 89.1778 40.3675C89.1778 40.3176 89.1247 40.3176 89.1247 40.3675C88.7531 42.314 90.0802 44.0109 92.2036 44.1108C94.6985 44.2106 97.4588 42.8131 99.1044 41.1162C99.1044 41.0163 99.0514 40.9165 98.9983 40.9664Z" fill="#0079A3"/>
<path d="M90.8756 40.2677C90.8756 40.2677 91.2472 41.9147 92.7866 41.8648C95.4939 41.8149 97.4049 39.3693 97.5641 38.7704C97.6703 38.5208 97.7765 36.2749 97.7234 34.1288C97.7234 33.9291 97.7234 33.6796 97.7234 33.4799C97.7234 33.2803 97.7234 33.0307 97.6703 32.8311C97.6703 32.5316 97.6172 32.2821 97.6172 32.0325C97.458 29.9862 97.2987 28.2394 97.2987 28.2394L96.3432 28.6886L89.6016 32.0824L90.3978 37.2731L90.4509 37.5725V37.6724L90.7163 39.2196L90.8756 40.2677Z" fill="#E9AB9E"/>
<path d="M90.5036 37.5725C91.353 37.7722 92.3085 37.8221 93.264 37.5725C95.3343 37.1233 96.7144 35.7259 97.7761 34.0788C97.7761 33.8792 97.7761 33.6296 97.7761 33.43C97.7761 33.2304 97.7761 32.9808 97.723 32.7812C97.723 32.4817 97.6699 32.2322 97.6699 31.9826C97.5107 29.9363 97.3514 28.1895 97.3514 28.1895L96.3959 28.6386L89.6543 32.0325L90.4506 37.2232L90.5036 37.5725Z" fill="#C27C88"/>
<path d="M82.224 25.5942C83.1264 34.8275 88.7002 34.8774 90.3988 34.9772C92.3099 35.127 99.6885 34.1787 99.7947 24.8954C99.9009 15.6122 95.0171 13.1167 90.6112 13.2664C86.2052 13.466 81.3215 16.3608 82.224 25.5942Z" fill="#E9AB9E"/>
<path d="M89.6021 25.1449L89.6552 25.1948C89.6552 25.8436 89.7083 26.5424 90.3453 26.742V26.7919C89.549 26.6921 89.4428 25.6939 89.6021 25.1449Z" fill="#435CCC"/>
<path d="M90.1851 24.4462C91.2468 24.3963 91.3529 26.3927 90.3443 26.4925C89.3888 26.5424 89.2827 24.546 90.1851 24.4462Z" fill="#435CCC"/>
<path d="M90.5047 24.4961C90.7171 24.546 90.9294 24.6957 91.1418 24.6957C91.4072 24.6458 91.5133 24.4461 91.6195 24.1966H91.6726C91.7788 24.546 91.7257 24.9452 91.301 25.095C90.9294 25.2447 90.6109 24.9452 90.4517 24.6458C90.3986 24.5959 90.4517 24.4961 90.5047 24.4961Z" fill="#435CCC"/>
<path d="M85.091 25.1948L85.0379 25.2447C85.1441 25.8437 85.1441 26.5923 84.6133 26.8918V26.9417C85.3565 26.742 85.3034 25.7438 85.091 25.1948Z" fill="#435CCC"/>
<path d="M84.453 24.5959C83.3913 24.6458 83.5506 26.6921 84.5592 26.6422C85.5147 26.5923 85.3554 24.546 84.453 24.5959Z" fill="#435CCC"/>
<path d="M84.0819 24.6957C83.9227 24.7955 83.7634 24.9952 83.5511 24.9952C83.2857 24.9952 83.1264 24.8455 82.9671 24.6458H82.9141C82.9141 24.9952 83.0733 25.3945 83.4449 25.4444C83.8165 25.4943 84.0819 25.1948 84.1881 24.7955C84.2411 24.7955 84.135 24.6957 84.0819 24.6957Z" fill="#435CCC"/>
<path d="M90.1332 29.7865C90.027 29.9362 89.8678 30.1858 89.6555 30.2357C89.4431 30.2856 89.1246 30.2357 88.9123 30.1858C88.9123 30.1858 88.8592 30.1858 88.9123 30.2357C89.1246 30.4353 89.4962 30.5352 89.8147 30.4353C90.0801 30.3355 90.1863 30.086 90.2394 29.7865C90.2394 29.7366 90.1863 29.7366 90.1332 29.7865Z" fill="#C27C88"/>
<path d="M83.6569 22.9489C83.8692 22.899 84.0815 22.7992 84.2939 22.7493C84.5593 22.6494 84.7716 22.6494 84.9309 22.4498C85.037 22.35 84.984 22.1503 84.8778 22.0505C84.6124 21.8509 84.2939 21.8509 84.0284 21.9507C83.7099 22.0505 83.4976 22.2002 83.2853 22.4498C83.073 22.6494 83.3384 22.9988 83.6569 22.9489Z" fill="#435CCC"/>
<path d="M91.0356 22.7492C90.8233 22.7492 90.611 22.6494 90.3455 22.6494C90.0801 22.5995 89.8678 22.5995 89.7085 22.3998C89.6024 22.3 89.6024 22.1004 89.7085 22.0006C89.9209 21.751 90.2394 21.751 90.5579 21.8009C90.8764 21.8508 91.1418 21.9507 91.3541 22.2002C91.5665 22.3998 91.3541 22.7492 91.0356 22.7492Z" fill="#435CCC"/>
<path d="M87.4258 28.988C87.4258 28.988 87.9035 29.5869 88.5405 29.7366C88.7529 29.7866 89.0183 29.8365 89.2837 29.7366C89.8146 29.5869 89.8145 29.1377 89.7084 28.7384C89.6022 28.3891 89.443 28.1395 89.443 28.1395C89.443 28.1395 88.6998 28.8882 87.4258 28.988Z" fill="#435CCC"/>
<path d="M88.541 29.7865C88.7534 29.8364 89.0188 29.8863 89.2842 29.7865C89.815 29.6368 89.815 29.1876 89.7089 28.7883C89.1249 28.8382 88.5941 29.2375 88.541 29.7865Z" fill="#C27C88"/>
<path d="M87.1069 27.7901C87.1069 27.7901 87.107 28.7384 87.16 29.1876C87.16 29.2375 87.2662 29.2375 87.4255 29.2375C88.2748 29.2874 89.071 28.8882 89.4957 28.2393C89.5488 28.1894 89.4426 28.1395 89.4426 28.1894C88.8587 28.6885 88.2217 28.8882 87.4785 28.9381C87.4254 28.8382 87.5847 27.291 87.4785 27.291C87.2131 27.291 86.7354 27.5406 86.4169 27.6404C86.4169 25.644 86.7354 23.6975 86.6823 21.7011C86.6823 21.6512 86.5761 21.6013 86.5761 21.7011C86.0983 23.7474 86.0453 26.0433 85.9922 28.0896C85.9922 28.3391 86.8946 27.89 87.1069 27.7901Z" fill="#C27C88"/>
<path d="M99.4753 24.9453C98.3605 24.9952 95.1224 22.5496 94.3792 17.6085C94.3792 17.6085 95.3878 22.0006 95.8655 22.5995C96.2902 23.1985 94.0607 21.2021 93.3706 17.2592C93.3706 17.2592 91.2473 19.1557 89.3362 19.9044C87.4252 20.703 86.2043 20.8028 85.992 20.703C85.8327 20.6031 88.6462 19.3554 89.3362 18.4071C89.3362 18.4071 84.3464 21.4017 81.9045 21.8509C81.6391 21.9008 80.5244 16.4606 83.9748 13.6656C87.4252 10.8707 93.7953 12.6175 95.6532 13.9152C95.6532 13.9152 97.5643 13.9152 100.006 16.3109C102.448 18.7066 100.643 24.8954 99.4753 24.9453Z" fill="#435CCC"/>
<path d="M90.1332 28.2393C88.5407 28.0896 87.3729 26.7919 87.5321 25.2946C87.6914 23.7973 89.0715 22.6993 90.664 22.8491C92.2565 22.9988 93.4244 24.2964 93.2652 25.7937C93.159 27.0415 92.0973 28.0397 90.8764 28.1894C90.611 28.2892 90.3455 28.2892 90.1332 28.2393ZM87.9037 25.3446C87.7975 26.6422 88.8061 27.7901 90.1332 27.89C91.5134 27.9898 92.7343 27.0415 92.8405 25.7937C92.9467 24.4961 91.9381 23.3482 90.611 23.2483C90.3986 23.2483 90.1863 23.2483 89.974 23.2483C88.9123 23.448 88.0098 24.2964 87.9037 25.3446Z" fill="#00A4EA"/>
<path d="M84.0813 28.4889C82.9135 28.5388 81.9049 27.3409 81.8518 25.8935C81.7987 25.1948 82.0111 24.4961 82.3827 23.997C82.7542 23.448 83.2851 23.1485 83.869 23.1485C84.4529 23.1485 84.9838 23.398 85.4084 23.8971C85.8331 24.3962 86.0454 25.0451 86.0985 25.7438C86.1516 27.1413 85.3554 28.3391 84.2406 28.4889C84.1875 28.439 84.1344 28.4889 84.0813 28.4889ZM82.6481 24.1467C82.3296 24.5959 82.1703 25.1948 82.1703 25.8436C82.2234 27.1413 83.0727 28.1395 84.0282 28.0896C84.9838 28.0397 85.7269 26.9916 85.6739 25.6939C85.6208 25.0451 85.4084 24.4961 85.0899 24.0469C84.7183 23.6476 84.2937 23.398 83.869 23.448C83.8159 23.448 83.7628 23.448 83.7098 23.448C83.2851 23.4979 82.9135 23.7474 82.6481 24.1467Z" fill="#00A4EA"/>
<path d="M87.6376 25.644L87.8499 25.3446C87.4252 24.9952 86.3636 24.5959 85.7266 25.3446L85.992 25.5941C86.629 24.8954 87.5845 25.5941 87.6376 25.644Z" fill="#00A4EA"/>
<path d="M100.644 25.0451L100.963 24.7956C100.856 24.6458 99.8478 23.5478 98.9454 23.5977C98.1491 23.6476 93.2123 25.095 93 25.1948L93.1062 25.5442C94.5394 25.1449 98.3084 23.997 98.9454 23.997C99.5293 23.9471 100.379 24.7456 100.644 25.0451Z" fill="#00A4EA"/>
<path d="M98.307 26.1431C98.307 26.1431 99.8995 22.9489 101.386 23.3981C102.925 23.8972 102.129 28.2893 100.59 29.1377C99.1033 29.9862 98.2539 28.6885 98.2539 28.6885L98.307 26.1431Z" fill="#E9AB9E"/>
<path d="M101.173 24.6458C100.165 25.2946 99.7401 26.3927 99.5278 27.4907C99.7932 27.0415 100.218 26.742 100.855 27.0415C100.908 27.0415 100.855 27.0914 100.855 27.0914C100.377 27.0914 100.059 27.1912 99.7932 27.5905C99.634 27.89 99.5278 28.2393 99.4216 28.5388C99.3685 28.6386 99.2093 28.6386 99.2093 28.4889C99.2093 28.4889 99.2093 28.4889 99.2093 28.439C98.8908 27.1413 99.6339 25.0451 101.173 24.6458Z" fill="#C27C88"/>
<path d="M121.718 66.0711C120.072 69.6147 111.897 63.875 110.199 61.5792C108.182 58.884 104.306 54.6916 101.918 51.4475C101.281 50.5491 100.697 49.7006 100.378 49.0019C98.7857 45.8076 97.9895 41.2658 100.591 40.1179C101.599 39.6687 103.669 40.7667 104.837 41.5653C107.704 43.412 110.677 46.2568 113.331 49.3512C118.798 55.8395 122.886 63.5257 121.718 66.0711Z" fill="#E9AB9E"/>
<path d="M113.278 49.3512C109.403 49.1017 105.368 49.8004 101.865 51.4475C101.228 50.5491 100.644 49.7006 100.326 49.0019C98.733 45.8076 97.9368 41.2658 100.538 40.1179C101.546 39.6687 103.617 40.7667 104.785 41.5653C107.704 43.4619 110.677 46.2568 113.278 49.3512Z" fill="#C27C88"/>
<path d="M100.962 50.9483C101.44 50.9983 104.412 47.2051 110.835 46.3566C111.419 46.2568 106.536 41.1161 102.236 39.3193C98.7323 37.8719 98.5731 40.8166 98.52 43.7114C98.4138 47.255 100.272 50.8984 100.962 50.9483Z" fill="#00A4EA"/>
<path d="M52.4967 34.0289C52.4967 33.979 52.5498 34.0289 52.4967 34.0289C50.3203 37.872 55.4163 40.7168 57.8581 42.813C58.0174 42.9129 57.8581 43.1125 57.6989 43.0626C54.7793 41.3158 49.4709 37.6723 52.4967 34.0289Z" fill="white"/>
<path d="M56.9564 35.3764C56.9033 34.9273 57.0626 32.9309 56.7441 31.9826C56.691 31.8328 56.6379 31.6332 56.5848 31.4835C56.4787 31.184 56.3194 30.9345 56.1602 30.7847C56.3725 30.8346 56.5848 30.9345 56.7972 31.0842C57.7527 31.8827 57.2218 34.3782 57.1157 35.3764C57.1157 35.4264 56.9564 35.4264 56.9564 35.3764Z" fill="white"/>
<path d="M56.9027 35.1269C56.8496 34.6278 59.4507 37.273 63.5913 38.2213C64.4406 38.421 66.9355 38.6206 68.1565 39.1197C69.3774 39.6188 70.7576 41.166 72.3501 42.0145C72.8809 42.3139 69.5366 45.9574 67.254 47.1053C66.5109 47.5046 64.5999 47.804 63.2728 47.4048C60.1939 46.4565 55.9472 42.6633 55.5225 41.5653C55.204 40.617 57.2212 39.9183 56.9027 35.1269Z" fill="white"/>
<path d="M71.5544 42.6633C70.652 41.8648 69.5903 41.0662 68.5287 40.4174C67.5731 39.8684 66.5646 39.7685 65.4498 39.6188C62.5302 39.2694 59.9822 38.1215 57.6996 36.4745C57.6465 36.4745 57.6465 36.4745 57.6465 36.5244C59.3982 38.0716 61.5747 39.1197 63.9104 39.6188C65.1844 39.8684 66.6177 39.8684 67.7855 40.4174C69.0595 41.0163 70.1743 42.0644 71.3952 42.7631C71.5544 42.863 71.6606 42.7631 71.5544 42.6633Z" fill="#F4F3E4"/>
<path d="M67.2016 46.4066C66.2461 46.4066 65.2906 46.5064 64.3351 46.4066C63.2203 46.2568 62.1586 45.5082 61.2562 44.9093C59.5575 43.8113 58.0712 42.4637 56.4787 41.2159C58.1243 42.8131 59.9291 44.3603 61.8932 45.5581C62.5833 45.9574 63.2734 46.4565 64.1227 46.5563C65.1313 46.706 66.2461 46.5563 67.2016 46.4066C67.2547 46.4565 67.2547 46.4066 67.2016 46.4066Z" fill="#F4F3E4"/>
<path d="M69.9616 43.6116C68.2629 42.4138 66.4581 41.7649 64.494 41.2159C62.2114 40.5671 60.0349 39.6188 58.0177 38.421C58.0177 38.421 57.9646 38.421 58.0177 38.4709C59.7695 39.5689 61.6805 40.4673 63.6977 41.1161C64.6532 41.4156 65.6618 41.6651 66.6704 42.0145C67.8913 42.4138 68.8999 43.0626 69.9616 43.7613C69.9616 43.7613 70.0147 43.6615 69.9616 43.6116Z" fill="#F4F3E4"/>
<path d="M68.7941 44.9592C66.6176 45.0091 64.7597 44.6098 62.8487 43.6615C60.9377 42.7132 59.3452 41.3657 57.6996 40.068C57.6996 40.068 57.6465 40.068 57.6465 40.1179C60.7784 42.9129 64.2289 45.3585 68.7941 45.1089C68.9002 45.1089 68.9002 44.9592 68.7941 44.9592Z" fill="#F4F3E4"/>
<path d="M64.1225 47.0553C67.4667 47.7042 69.6963 50.599 73.0405 51.2977C76.5441 51.9964 75.9601 48.3031 75.1639 46.4065C74.4207 44.6098 73.0406 43.1624 71.395 42.0644C71.3419 42.0144 71.395 41.9146 71.5011 41.9645C73.306 43.0126 74.6331 44.5099 75.4824 46.3067C76.1725 47.7042 76.9687 50.0999 75.5355 51.3476C74.1022 52.5954 71.7665 51.4973 70.3863 50.7487C68.263 49.6008 66.4051 48.1035 64.1225 47.3049C63.9101 47.2051 63.9632 47.0054 64.1225 47.0553Z" fill="white"/>
<path d="M78.2422 44.9592C78.2422 44.9592 80.684 47.5046 83.1259 50.0001C84.3999 51.3477 85.727 52.6453 86.6294 53.5437C87.3726 54.2424 87.7973 54.7415 87.8503 54.7415C88.0627 54.7915 89.0182 54.5918 89.4429 54.9412C89.8675 55.2906 90.186 54.6417 90.2391 54.5918C90.2922 54.5419 89.6021 54.3423 88.9651 53.943C88.6997 53.7933 88.4873 53.5936 88.275 53.394C87.638 52.6952 87.3726 51.7969 87.1603 51.4475C87.1072 51.3477 86.6825 50.9983 86.0986 50.4493C84.0283 48.6525 79.8347 45.1588 79.6224 45.059C79.41 44.9592 78.2953 44.8594 78.2422 44.9592Z" fill="#1A2C6D"/>
<path d="M92.8926 51.4475C92.8926 52.1462 93.7419 53.1444 95.3344 53.3441C96.9269 53.5437 98.0417 52.8949 98.1479 51.8468C98.2541 50.7987 97.2455 49.7007 95.9184 49.501C93.4234 49.2016 92.8926 50.7488 92.8926 51.4475ZM95.8122 49.9502C96.8739 50.0999 97.617 50.9484 97.5639 51.747C97.4578 52.5455 96.6084 53.0446 95.3875 52.8949C94.1666 52.7452 93.5296 51.9466 93.5296 51.4475C93.5296 50.8985 93.9012 49.7007 95.8122 49.9502Z" fill="#1A2C6D"/>
<path d="M89.3908 56.3886C89.497 56.8377 90.0278 58.1354 90.9833 58.9839C91.9389 59.8323 93.7437 61.1799 95.0708 60.0819C96.3979 59.0338 94.6992 57.237 93.8498 56.2887C92.8943 55.2406 90.8241 53.6934 89.7093 54.5419C89.1785 54.9412 89.2316 55.6898 89.3908 56.3886ZM90.0809 54.9911C90.9833 54.3922 92.7882 55.7896 93.4783 56.5882C94.1153 57.2869 95.6547 58.934 94.6461 59.7824C93.6375 60.581 91.9919 59.2833 91.3018 58.6345C90.6117 57.9857 90.134 56.9875 89.9747 56.6381C89.7624 55.9394 89.8155 55.1907 90.0809 54.9911Z" fill="#1A2C6D"/>
<path d="M83.127 50.0001C84.401 51.3477 85.7281 52.6454 86.6305 53.5437C87.4268 53.6935 88.3292 53.8432 89.0193 53.943C88.7539 53.7933 88.5415 53.5936 88.3292 53.394C87.6922 52.6953 87.4267 51.7969 87.2144 51.4475C87.1613 51.3477 86.7367 50.9983 86.1527 50.4493C85.1972 50.2996 84.1886 50.1998 83.127 50.0001Z" fill="#1A2C6D"/>
<path d="M76.4375 48.8522C76.5968 48.8522 88.2752 51.7469 88.4344 51.7469C88.5937 51.7469 89.9739 51.1979 90.8763 51.2478C91.7787 51.2478 93.212 51.3976 93.2651 51.4475C93.3181 51.4974 93.4243 52.2461 93.3712 52.296C93.3182 52.296 92.4157 52.0464 91.5664 52.0464C90.717 52.0464 88.8591 52.6453 88.169 53.5437C88.1159 53.5936 77.6584 50.4493 77.0745 50.05C76.5968 49.7506 76.4375 48.8522 76.4375 48.8522Z" fill="#1A2C6D"/>
<path d="M86.6289 51.9965C86.7351 51.9466 86.8413 51.9466 86.8943 51.9965H86.9474C87.1597 52.1961 87.0005 52.5455 86.7351 52.4956C86.4166 52.4956 86.3635 52.0963 86.6289 51.9965Z" fill="#1A2C6D"/>
<path d="M109.827 67.4187C105.952 65.6219 101.812 62.9767 98.3613 60.7807C96.6096 59.6827 98.4675 55.1408 101.387 55.59C108.5 56.6381 115.614 57.1372 119.276 61.3297C121.453 63.8252 122.355 64.5738 121.559 66.4205C120.126 69.6646 116.038 70.3135 109.827 67.4187Z" fill="#E9AB9E"/>
<path d="M105.103 56.2389L99.4762 54.9911C99.4762 54.9911 97.2467 53.4938 94.8579 53.0446C92.4691 52.5954 88.9125 53.5437 88.5409 55.2906C88.1693 57.0374 89.1248 56.5383 90.1334 56.7879C91.142 56.9875 93.1592 58.8841 94.8579 59.0338C94.8579 59.0338 95.3356 59.2834 96.7689 59.9821C98.2022 60.6808 102.714 63.2263 102.714 63.2263C102.714 63.2263 106.696 60.6309 105.103 56.2389Z" fill="#E9AB9E"/>
<path d="M120.019 65.8216C119.754 65.4223 119.117 65.2227 118.692 65.5221C118.321 65.7717 118.268 66.3706 118.745 66.67C119.117 66.8697 119.648 66.5203 119.382 66.121C119.329 66.0711 119.223 66.121 119.276 66.1709C119.329 66.4205 118.958 66.4704 118.852 66.3207C118.745 66.2209 118.745 66.0212 118.799 65.8715C118.905 65.6718 119.223 65.6219 119.436 65.7218C119.648 65.8216 119.807 66.0212 119.86 66.2708C119.913 66.5203 119.754 66.7699 119.595 66.9196C119.542 66.9695 119.595 67.0194 119.648 67.0194C120.019 66.8198 120.285 66.2209 120.019 65.8216Z" fill="#C27C88"/>
<path d="M120.445 62.7272C119.118 60.7807 117.154 59.0838 114.871 58.1854C112.111 57.0874 108.979 56.6382 106.059 56.2389C106.006 56.2389 106.006 56.2888 106.059 56.2888C108.82 56.8877 111.633 57.3369 114.34 58.3351C116.888 59.2834 118.534 61.0303 120.392 62.827C120.392 62.8769 120.498 62.7771 120.445 62.7272Z" fill="#C27C88"/>
<path d="M124.637 79.6965H19V82.8908H124.637V79.6965Z" fill="#6A9988"/>
<path d="M68.3669 44.1606C68.2607 42.9129 68.2076 41.4655 67.4114 40.4174C66.5089 39.2195 64.7041 39.0698 63.2708 38.7704C58.8118 37.8221 54.3527 36.9736 49.8937 36.2249C45.0631 35.4264 40.1794 34.8774 35.2957 34.3284C35.2426 34.3284 35.2426 34.3783 35.2957 34.3783C40.551 34.9772 45.8593 35.8257 51.0616 36.724C53.6096 37.1732 56.1045 37.6224 58.6525 38.1215C60.9882 38.5707 63.5893 38.8702 65.8188 39.6687C68.473 40.617 68.1545 44.4102 68.3138 46.5563C68.473 48.952 68.5792 51.3477 68.5792 53.7933C68.5261 58.7843 67.9422 63.6754 67.199 68.6165C67.199 68.7163 67.3052 68.7662 67.3583 68.6664C69.0039 60.6309 69.2162 52.246 68.3669 44.1606Z" fill="white"/>
<path d="M37.419 33.7794C37.6844 33.9291 37.6313 39.9682 37.4721 39.9682C37.3128 39.9183 34.287 39.9682 34.1278 39.8684C33.9685 39.8185 33.5438 33.9291 33.7031 33.7794C33.8093 33.6796 37.1005 33.6296 37.419 33.7794Z" fill="white"/>
<path d="M38.4277 33.8293H32.8008" stroke="#00A4EA" stroke-width="2" stroke-miterlimit="10"/>
<path d="M38.6936 40.0681H33.0137" stroke="#00A4EA" stroke-width="2" stroke-miterlimit="10"/>
<path d="M67.7828 62.8769L67.5174 68.7164L67.252 62.8769H67.7828Z" fill="#435CCC"/>
<path d="M73.7823 52.6952C73.6762 52.7451 73.0922 52.7451 72.5083 52.7451C71.659 52.7451 70.6504 52.6952 70.6504 52.6952L71.3936 44.4601C71.4997 44.4601 72.2429 44.4601 72.9861 44.4601C73.6231 44.51 74.207 44.5599 74.2601 44.7096C74.4194 44.9592 74.1008 52.5954 73.7823 52.6952Z" fill="#435CCC"/>
<path opacity="0.3" d="M72.9334 44.4601C72.8803 47.2052 72.721 50.0001 72.4556 52.7452C71.6062 52.7452 70.5977 52.6953 70.5977 52.6953L71.3408 44.4601C71.447 44.4601 72.2433 44.4102 72.9334 44.4601Z" fill="#1A2C6D"/>
<path d="M27.3337 54.2425C27.2806 54.2425 26.3251 54.2924 25.4227 54.2425C24.5733 54.2425 23.724 54.1926 23.5648 54.0928C23.2462 53.8931 23.8302 45.3086 23.9363 45.109C23.9894 45.0091 24.998 44.9592 25.9535 45.0091C26.909 45.0091 27.8115 45.0591 27.8645 45.109C28.0238 45.3585 27.3868 54.2425 27.3337 54.2425Z" fill="#435CCC"/>
<path opacity="0.3" d="M27.3329 54.2425C27.2798 54.2425 26.3243 54.2924 25.4219 54.2425C25.528 51.1481 25.6873 48.0537 25.9527 45.0092C26.9082 45.0092 27.8106 45.0591 27.8637 45.109C28.023 45.3585 27.386 54.2425 27.3329 54.2425Z" fill="#1A2C6D"/>
<path d="M70.3841 59.3832C69.8532 60.5311 68.4731 61.8787 67.0929 61.7789C64.4387 61.6291 64.1733 56.0891 62.3154 54.7416C60.4574 53.394 49.2037 54.7915 47.1865 55.4403C45.1693 56.0891 44.4792 57.4367 44.0015 59.8823C43.6299 61.7789 45.7532 64.5738 46.5495 68.9659C46.7618 70.1637 46.868 71.5113 46.8149 72.9587L29.2973 72.8589C29.2442 72.7091 29.1911 70.6129 29.3503 69.0158C29.4034 68.367 29.5096 67.7681 29.7219 67.4187C30.3058 66.1709 31.686 64.9731 31.5268 62.4776C31.3675 59.9322 27.6517 56.7879 27.1208 55.8895C26.59 54.9911 27.0147 44.8095 27.3862 44.1606C27.7578 43.5118 31.7391 40.5671 35.6142 40.1678C39.4893 39.7686 46.1779 43.3621 49.9468 44.3603C53.7158 45.3585 58.0686 45.7079 58.9711 45.7578C59.8735 45.8077 64.2264 41.7151 65.5535 41.0662C66.8275 40.4174 71.1273 40.2178 71.5519 42.2641C72.0297 44.3104 70.8618 58.2353 70.3841 59.3832Z" fill="#435CCC"/>
<path opacity="0.3" d="M46.8676 72.9587L29.35 72.8589C29.2969 72.7092 29.2438 70.6129 29.403 69.0158C29.9339 69.0158 30.4116 69.0158 30.9425 69.0158C36.1447 68.916 41.4 68.9659 46.6553 68.9659C46.8145 70.1637 46.9738 71.5113 46.8676 72.9587Z" fill="#1A2C6D"/>
<path opacity="0.3" d="M36.3036 49.0518C37.4715 49.0518 37.4715 50.7488 36.3036 50.7488C35.1358 50.7987 35.1358 49.0518 36.3036 49.0518Z" fill="#1A2C6D"/>
<path opacity="0.3" d="M67.517 55.7897C68.6848 55.7897 68.6848 57.4866 67.517 57.4866C66.3491 57.5365 66.2961 55.7897 67.517 55.7897Z" fill="#1A2C6D"/>
<path opacity="0.3" d="M67.517 43.412C68.6848 43.412 68.6848 45.1089 67.517 45.1089C66.3491 45.1089 66.2961 43.412 67.517 43.412Z" fill="#1A2C6D"/>
<path d="M69.9602 75.3544C69.9602 75.554 69.9602 75.8036 69.9602 76.0032C69.9071 77.8998 69.6948 79.6966 69.3232 79.6966C68.5269 79.7465 26.2192 80.0459 25.6352 79.5967C25.3698 79.3472 25.2637 77.6502 25.2637 75.9533C25.2637 75.8036 25.2637 75.6039 25.2637 75.4542C25.2637 73.7573 25.4229 72.1602 25.6883 71.9605C26.4315 71.3616 68.7924 71.5113 69.5355 71.9106C69.801 72.0104 69.9602 73.6075 69.9602 75.3544Z" fill="#435CCC"/>
<path opacity="0.3" d="M69.9606 75.3544C69.9606 75.554 69.9606 75.8036 69.9606 76.0032C63.0597 76.0531 56.1588 75.9533 49.2579 75.9533C41.2953 75.9533 33.2266 76.1529 25.2109 75.9533C25.2109 75.8036 25.2109 75.6039 25.2109 75.4542C33.2266 75.2046 41.2422 75.4542 49.2579 75.4542C56.1057 75.4043 63.0597 75.3045 69.9606 75.3544Z" fill="#1A2C6D"/>
<path d="M65.873 60.9803C65.873 60.9803 65.9262 63.2263 66.0323 63.3261C66.1916 63.4259 68.7927 63.376 69.005 63.1764C69.1643 62.9767 69.1112 60.8805 69.1112 60.8805L65.873 60.9803Z" fill="#435CCC"/>
<path d="M82.2234 77.3008H71.1289V78.6983H82.2234V77.3008Z" fill="white"/>
<path d="M81.1095 76.8516V79.1475C81.1095 79.4469 80.8441 79.6965 80.5256 79.6965H72.7753C72.6691 79.6965 72.563 79.6466 72.5099 79.6466C72.4568 79.5967 72.4037 79.5967 72.3507 79.5468C72.2445 79.4469 72.1914 79.3471 72.1914 79.1974V76.8516C72.1914 76.5522 72.4568 76.3026 72.7753 76.3026H80.5256C80.6848 76.3026 80.8441 76.4024 80.9502 76.5023C81.0033 76.5522 81.0033 76.6021 81.0564 76.652C81.1095 76.7019 81.1095 76.7518 81.1095 76.8516Z" fill="#00A4EA"/>
<path d="M73.6247 76.3026C73.2 76.9514 72.7222 77.5504 72.1914 78.1493V77.8498C72.6692 77.3507 73.0408 76.8516 73.4654 76.3026H73.6247Z" fill="#1A2C6D"/>
<path d="M75.5366 76.3026C74.7403 77.5504 73.7317 78.6983 72.5108 79.5967C72.4577 79.5468 72.4046 79.5468 72.3516 79.4969C73.5194 78.5486 74.528 77.5005 75.3773 76.3026H75.5366Z" fill="#1A2C6D"/>
<path d="M77.4462 76.3026C76.5969 77.6003 75.5883 78.7482 74.3142 79.6965H74.0488C75.2698 78.6983 76.3845 77.6003 77.2869 76.3026H77.4462Z" fill="#1A2C6D"/>
<path d="M79.3583 76.3026C78.509 77.6003 77.5004 78.7482 76.2264 79.6965H75.9609C77.1819 78.6983 78.2966 77.6003 79.1991 76.3026H79.3583Z" fill="#1A2C6D"/>
<path d="M81.1089 76.652C80.3126 77.7999 79.3571 78.848 78.1892 79.6965H77.9238C79.0917 78.7482 80.1533 77.7001 81.0027 76.5023C81.0558 76.5522 81.0558 76.6021 81.1089 76.652Z" fill="#1A2C6D"/>
<path d="M81.1103 78.5486V78.848C80.7918 79.1475 80.4202 79.447 80.0486 79.6965H79.7832C80.261 79.2972 80.7387 78.9479 81.1103 78.5486Z" fill="#1A2C6D"/>
<path d="M89.0832 78.433L79.6074 73.0067L78.8342 74.2003L88.31 79.6266L89.0832 78.433Z" fill="white"/>
<path d="M88.3799 77.5005L87.1058 79.447C86.9466 79.6965 86.575 79.7963 86.3096 79.6466L79.6741 75.8534C79.568 75.8035 79.5149 75.7536 79.4618 75.6538C79.4087 75.6039 79.4087 75.554 79.4087 75.5041C79.3556 75.3543 79.4087 75.2545 79.4618 75.1048L80.7358 73.1583C80.895 72.9087 81.2666 72.8089 81.5321 72.9587L88.1675 76.7518C88.3268 76.8516 88.4329 77.0014 88.4329 77.1511C88.4329 77.201 88.4329 77.2509 88.4329 77.3008C88.4329 77.3507 88.433 77.4506 88.3799 77.5005Z" fill="#00A4EA"/>
<path d="M82.2744 73.358C81.5313 73.7073 80.7881 74.0068 80.0449 74.2563L80.2042 74.0068C80.8412 73.8071 81.5313 73.5576 82.1152 73.308L82.2744 73.358Z" fill="#0079A3"/>
<path d="M83.92 74.3062C82.5398 75.0049 81.0534 75.4541 79.514 75.6538C79.4609 75.6039 79.4609 75.5539 79.4609 75.504C80.9473 75.2545 82.4336 74.8552 83.8138 74.2563L83.92 74.3062Z" fill="#0079A3"/>
<path d="M85.5663 75.2545C84.133 75.9533 82.6467 76.4524 81.0541 76.6021L80.8418 76.4524C82.4343 76.2028 84.0268 75.8036 85.4601 75.1547L85.5663 75.2545Z" fill="#0079A3"/>
<path d="M87.1581 76.2028C85.7248 76.9015 84.2385 77.4006 82.6459 77.5504L82.4336 77.4006C84.0261 77.1511 85.6186 76.7518 87.0519 76.103L87.1581 76.2028Z" fill="#0079A3"/>
<path d="M88.4329 77.3008C87.1058 77.8998 85.7257 78.2991 84.2924 78.4987L84.0801 78.349C85.6195 78.1493 87.1058 77.75 88.486 77.1511C88.486 77.201 88.486 77.2509 88.4329 77.3008Z" fill="#0079A3"/>
<path d="M87.4236 78.9479L87.2644 79.1974C86.8397 79.2972 86.3619 79.3472 85.8842 79.3971L85.6719 79.2473C86.3089 79.1974 86.8928 79.0976 87.4236 78.9479Z" fill="#0079A3"/>
<path d="M121.027 82.8907H22.5566V94.8192H121.027V82.8907Z" fill="#6A9988"/>
<g opacity="0.5">
<path d="M121.027 82.8907H22.5566V87.5324H121.027V82.8907Z" fill="#976572"/>
</g>
<rect width="40" height="41" rx="20" fill="#435CCC"/>
<path d="M14.66 27.5V25.4L20.06 20.3C20.4867 19.9133 20.8 19.5667 21 19.26C21.2 18.9533 21.3333 18.6733 21.4 18.42C21.48 18.1667 21.52 17.9333 21.52 17.72C21.52 17.16 21.3267 16.7333 20.94 16.44C20.5667 16.1333 20.0133 15.98 19.28 15.98C18.6933 15.98 18.1467 16.0933 17.64 16.32C17.1467 16.5467 16.7267 16.9 16.38 17.38L14.02 15.86C14.5533 15.06 15.3 14.4267 16.26 13.96C17.22 13.4933 18.3267 13.26 19.58 13.26C20.62 13.26 21.5267 13.4333 22.3 13.78C23.0867 14.1133 23.6933 14.5867 24.12 15.2C24.56 15.8133 24.78 16.5467 24.78 17.4C24.78 17.8533 24.72 18.3067 24.6 18.76C24.4933 19.2 24.2667 19.6667 23.92 20.16C23.5867 20.6533 23.0933 21.2067 22.44 21.82L17.96 26.04L17.34 24.86H25.24V27.5H14.66Z" fill="white"/>
</svg>
