<svg width="121" height="98" viewBox="0 0 121 98" fill="none" xmlns="http://www.w3.org/2000/svg">
<rect width="40" height="41" rx="20" fill="#435CCC"/>
<path d="M19.32 27.74C18.3467 27.74 17.38 27.6133 16.42 27.36C15.46 27.0933 14.6467 26.72 13.98 26.24L15.24 23.76C15.7733 24.1467 16.3933 24.4533 17.1 24.68C17.8067 24.9067 18.52 25.02 19.24 25.02C20.0533 25.02 20.6933 24.86 21.16 24.54C21.6267 24.22 21.86 23.78 21.86 23.22C21.86 22.6867 21.6533 22.2667 21.24 21.96C20.8267 21.6533 20.16 21.5 19.24 21.5H17.76V19.36L21.66 14.94L22.02 16.1H14.68V13.5H24.48V15.6L20.6 20.02L18.96 19.08H19.9C21.62 19.08 22.92 19.4667 23.8 20.24C24.68 21.0133 25.12 22.0067 25.12 23.22C25.12 24.0067 24.9133 24.7467 24.5 25.44C24.0867 26.12 23.4533 26.6733 22.6 27.1C21.7467 27.5267 20.6533 27.74 19.32 27.74Z" fill="white"/>
<path opacity="0.2" d="M115.169 67.7046C117.027 55.7761 76.2585 25.2312 65.801 25.5806C46.2662 26.2294 8.099 70.0504 16.6455 85.223C23.0686 96.6025 112.249 86.8201 115.169 67.7046Z" fill="#00A4EA"/>
<path d="M15 82.7774H120.637V85.9717H15V82.7774Z" fill="#6A9988"/>
<path d="M18.6097 86.0215H117.08V97.95H18.6097V86.0215Z" fill="#6A9988"/>
<g opacity="0.5">
<path d="M18.6097 86.0215H117.08V90.6632H18.6097V86.0215Z" fill="#976572"/>
</g>
<path d="M37.8249 71.6475C40.0544 72.9452 44.9912 72.5958 46.106 72.3463C46.106 72.3463 65.3754 69.3017 70.8961 61.9151C74.2934 57.3733 76.2575 50.2861 75.939 43.7978C75.6736 37.8086 72.1701 29.5235 68.0826 38.1579C66.2778 42.001 64.1544 51.2343 60.8632 55.2771C60.1732 56.1255 50.1403 66.2572 41.5407 67.0558C36.4978 67.505 35.3299 66.6066 34.5868 67.7545C34.0028 68.5531 35.0645 70.0504 37.8249 71.6475Z" fill="#E9AB9E"/>
<path d="M67.9772 62.9632C67.9242 62.514 67.4464 62.1147 66.9156 62.2146C66.4378 62.3144 66.1724 62.8135 66.4909 63.2128C66.7032 63.5122 67.3402 63.4124 67.2871 62.9632C67.2871 62.9133 67.181 62.9133 67.181 62.9632C67.1279 63.2128 66.8094 63.1628 66.7032 62.9632C66.6501 62.8135 66.7032 62.6637 66.8625 62.5639C67.0748 62.4142 67.3402 62.514 67.4995 62.6637C67.6587 62.8135 67.7118 63.063 67.6587 63.2627C67.6056 63.5122 67.3402 63.6619 67.1279 63.7618C67.0748 63.8117 67.0748 63.8616 67.1279 63.8616C67.6056 63.8616 68.0834 63.4124 67.9772 62.9632Z" fill="#C27C88"/>
<path d="M51.6797 71.947C53.1661 71.5976 66.0654 68.3534 70.5775 63.063C75.1427 57.7725 77.7969 50.4358 76.0982 41.7015C74.9304 35.862 73.391 31.8193 70.896 33.6161C69.622 34.5145 67.711 37.2096 66.3308 41.1026C63.5174 49.2379 61.6595 53.081 60.4916 54.4785C59.3238 55.8759 48.7601 63.612 47.6984 64.2109C46.6368 64.7599 50.565 72.1965 51.6797 71.947Z" fill="#00A4EA"/>
<path d="M49.2386 62.6637C49.6102 62.6138 51.2558 67.1057 51.8397 67.8543C52.4236 68.603 54.7593 71.2482 54.5469 71.4478C54.3346 71.6475 51.0965 72.7455 50.6718 72.5458C50.2472 72.3462 48.0707 69.5513 47.5399 68.4033C46.956 67.2554 46.5844 64.5104 46.7967 64.161C46.956 63.8116 48.8139 62.7136 49.2386 62.6637Z" fill="#0079A3"/>
<path d="M80.133 29.4736C73.3914 29.0244 69.4101 34.7142 66.7028 41.9012C63.1993 51.2344 59.9081 81.0805 60.8105 82.8274H101.579C102.269 81.929 95.368 48.1899 91.7053 39.5055C90.272 36.0118 85.9722 29.8729 80.133 29.4736Z" fill="#00A4EA"/>
<path d="M65.9068 43.9974C65.5352 45.345 65.1636 46.6926 64.8982 48.0401C64.8451 47.591 64.792 47.1418 64.792 46.7425C64.792 46.6427 64.6859 46.6427 64.6328 46.7425C64.5266 47.541 64.4205 48.4893 64.6328 49.2879C64.3143 50.9848 61.9786 66.9061 61.9255 68.6529C61.9255 68.7528 62.0848 68.8027 62.1379 68.7029C62.8279 65.2591 65.3229 47.541 66.1191 44.0972C66.1191 43.9475 65.9068 43.8976 65.9068 43.9974Z" fill="#0079A3"/>
<path d="M69.0919 25.5806L71.8523 33.6161L72.2239 34.764C72.2239 34.764 72.33 38.0082 75.0904 37.7586C79.7617 37.3594 81.832 32.2685 81.9913 31.5698C82.0443 31.2204 81.3543 28.2758 80.6642 25.4808C80.0272 22.8356 79.3371 20.2902 79.3371 20.2902L78.1692 20.8891L69.0919 25.5806Z" fill="#E9AB9E"/>
<path d="M69.0914 25.5806L71.8518 33.6161C74.6122 32.5181 77.054 30.6714 78.8589 28.3756C79.602 27.4772 80.186 26.479 80.7168 25.4808C80.0798 22.8356 79.3897 20.2902 79.3897 20.2902L78.2219 20.8891L69.0914 25.5806Z" fill="#C27C88"/>
<path d="M62.4019 12.4044C62.4019 12.4044 60.8624 13.9017 60.5439 15.7483C60.2254 17.6449 62.7734 21.8873 62.7734 21.8873L62.4019 12.4044Z" fill="#435CCC"/>
<path d="M76.8415 9.50959C79.8142 12.5541 81.5128 22.037 79.6549 26.0298C78.3809 28.7249 74.2934 30.7712 70.6307 30.5217C68.9851 30.4219 67.3926 29.8728 66.2247 28.675C62.4558 24.9318 60.704 13.702 62.5088 11.3063C65.5877 7.11391 73.1787 5.76634 76.8415 9.50959Z" fill="#E9AB9E"/>
<path d="M69.4614 20.1404C69.4614 20.1404 69.5145 20.1404 69.5145 20.1903C69.6737 20.7892 69.9392 21.488 70.5762 21.5379V21.5878C69.833 21.6377 69.5145 20.7393 69.4614 20.1404Z" fill="#435CCC"/>
<path d="M69.8865 19.3918C70.8951 19.0923 71.479 20.9889 70.5766 21.2883C69.6211 21.5878 69.0371 19.6413 69.8865 19.3918Z" fill="#435CCC"/>
<path d="M65.5344 21.2385L65.4813 21.2884C65.6936 21.8873 65.7998 22.586 65.2689 22.9354V22.9853C66.0121 22.7358 65.8529 21.7875 65.5344 21.2385Z" fill="#435CCC"/>
<path d="M64.7904 20.7892C63.7288 20.9889 64.2596 22.9354 65.2151 22.7357C66.1706 22.5361 65.6398 20.5896 64.7904 20.7892Z" fill="#435CCC"/>
<path d="M71.2145 25.6305C71.1083 25.8301 71.0022 26.0298 70.7898 26.1296C70.5775 26.2294 70.259 26.1795 70.0466 26.1795C70.0466 26.1795 69.9936 26.1795 70.0466 26.2294C70.259 26.4291 70.6837 26.479 70.9491 26.3292C71.2145 26.1795 71.2676 25.93 71.2676 25.6804C71.2676 25.5806 71.2145 25.5806 71.2145 25.6305Z" fill="#C27C88"/>
<path d="M70.4183 18.2937C70.0998 18.2937 69.8344 18.2438 69.569 18.2438C69.2505 18.2438 68.985 18.2438 68.6665 18.0442C68.5073 17.9444 68.5073 17.6948 68.5604 17.5451C68.7727 17.1957 69.1974 17.1458 69.622 17.1458C70.0467 17.1458 70.4183 17.2955 70.7368 17.5451C71.0553 17.7946 70.7899 18.2937 70.4183 18.2937Z" fill="#435CCC"/>
<path d="M63.6763 19.9907C63.9418 19.8908 64.1541 19.7411 64.4195 19.5914C64.6849 19.4416 64.9504 19.3418 65.1096 19.0424C65.2158 18.8926 65.1096 18.6431 64.9504 18.5433C64.5788 18.3436 64.1541 18.4434 63.8356 18.6431C63.464 18.8427 63.1986 19.0923 63.0393 19.4916C62.8801 19.8409 63.3578 20.1903 63.6763 19.9907Z" fill="#435CCC"/>
<path d="M68.5066 24.9817C68.5066 24.9817 69.4621 26.0298 70.3645 25.5307C71.0546 25.1314 70.2053 23.8337 70.2053 23.8337C70.2053 23.8337 69.4621 24.782 68.5066 24.9817Z" fill="white"/>
<path d="M70.3125 23.8337C70.1002 24.4326 69.6755 24.8818 69.1447 25.1314C68.9323 25.2312 68.6669 25.331 68.4015 25.3809C68.3484 25.3809 68.2953 25.3809 68.2422 25.3809C68.1892 25.3809 68.1361 25.3809 68.083 25.3809C68.0299 25.3809 67.9237 25.331 67.9237 25.2811V25.2312V25.1813C67.7645 24.7321 67.6052 24.0334 67.6052 24.0334C67.446 24.1831 66.6497 24.782 66.5966 24.5325C66.1189 22.4862 65.588 20.2402 65.535 18.144C65.535 18.0941 65.6411 18.0442 65.6411 18.144C66.172 20.0905 66.3843 22.0869 66.8621 24.0334C67.1275 23.8337 67.5521 23.5343 67.8176 23.4844C67.8706 23.4844 68.1361 24.8818 68.1891 25.0815C69.0385 24.9817 69.5693 24.5325 70.2063 23.8337C70.2594 23.7339 70.3125 23.7339 70.3125 23.8337Z" fill="#C27C88"/>
<path d="M79.7078 19.3918C78.8054 19.9408 76.5759 14.1013 76.5759 14.1013C76.5759 14.1013 71.1613 13.4525 69.9404 11.4062C69.9404 11.4062 68.9849 13.8019 67.3924 14.8999C65.7998 15.9979 60.173 16.497 59.589 16.2974C59.1644 16.1476 58.7397 10.6575 62.2432 7.9624C64.5258 6.21555 67.6578 6.11573 71.2144 7.41339C71.2144 7.41339 75.8858 6.91429 78.0091 9.40979C80.1855 11.9053 81.2472 18.4934 79.7078 19.3918Z" fill="#435CCC"/>
<path d="M62.5612 16.3972C64.5784 16.0977 66.9672 15.9979 68.2943 14.301C69.2498 13.0532 69.6744 11.6058 70.0991 10.1085C70.1522 9.90889 70.4707 9.95881 70.4707 10.1584C70.4176 11.8554 69.6214 13.7021 68.4004 14.8999C66.9672 16.3473 64.5253 16.2974 62.5612 16.4471C62.4551 16.497 62.5081 16.3972 62.5612 16.3972Z" fill="#435CCC"/>
<path d="M78.5398 19.5415C78.5398 19.5415 79.3892 15.7982 81.1409 15.948C82.8396 16.0977 83.105 20.9889 81.7249 22.1867C80.3447 23.3846 79.1238 22.2366 79.1238 22.2366L78.5398 19.5415Z" fill="#E9AB9E"/>
<path d="M81.1404 17.3455C81.1935 17.3455 81.1935 17.3455 81.1404 17.3455C80.1849 18.2937 80.0257 19.5415 80.0788 20.7393C80.238 20.1903 80.6096 19.791 81.3528 19.9408C81.4058 19.9408 81.4058 19.9907 81.3528 19.9907C80.8219 20.0905 80.5565 20.2902 80.3442 20.7893C80.238 21.1386 80.238 21.488 80.1849 21.8873C80.1849 21.9871 79.9726 22.037 79.9726 21.8873C79.9726 21.8873 79.9726 21.8873 79.9726 21.8374C79.3356 20.4898 79.6541 18.0941 81.1404 17.3455Z" fill="#C27C88"/>
<path d="M42.6036 65.7581C46.1602 64.8597 56.4585 65.8579 61.5014 69.8008C66.5444 73.7437 77.3735 73.9433 77.3735 73.9433L71.5874 81.5796L80.2931 76.0395C80.2931 76.0395 86.3446 80.232 87.7779 82.8772C89.2112 85.5224 90.7506 91.1623 93.0332 91.5116C93.0332 91.5116 75.781 98.1996 62.5631 96.7522C62.5631 96.7522 57.0955 83.9752 51.8402 82.8772C46.5849 81.7792 42.7629 72.5459 41.8605 70.9487C40.9049 69.4015 38.9939 67.3053 37.4545 67.1556C35.9151 67.0059 39.5248 66.5567 42.6036 65.7581Z" fill="white"/>
<path d="M86.9808 67.0558C87.724 66.2073 90.5905 65.7082 90.909 65.7082C91.2275 65.7082 89.1042 68.004 88.5733 68.2037C87.6709 68.5031 85.6006 69.9505 85.176 69.7509C84.8575 69.5513 85.5476 68.603 86.9808 67.0558Z" fill="#E9AB9E"/>
<path d="M74.135 79.1839C74.135 79.1839 76.5768 76.6385 79.0187 74.143C80.2927 72.7954 81.6198 71.4977 82.5222 70.5994C83.2654 69.9006 83.69 69.4015 83.7431 69.4015C83.9555 69.3516 84.911 69.5513 85.3356 69.2019C85.7603 68.8525 86.0788 69.5013 86.1319 69.5513C86.185 69.6012 85.4949 69.8008 84.8579 70.2001C84.5925 70.3498 84.3801 70.5495 84.1678 70.7491C83.5308 71.4478 83.2654 72.3462 83.053 72.6956C82.9999 72.7954 82.5753 73.1448 81.9913 73.6938C79.9211 75.4905 75.7275 78.9842 75.5151 79.0841C75.3028 79.2338 74.188 79.3336 74.135 79.1839Z" fill="#4C60AD"/>
<path d="M88.7859 72.7455C88.7859 72.0468 89.6352 71.0486 91.2277 70.8489C92.8202 70.6493 93.935 71.2981 94.0412 72.3462C94.1473 73.3943 93.1387 74.4924 91.8116 74.692C89.3167 74.9915 88.7859 73.4443 88.7859 72.7455ZM91.7055 74.1929C92.7671 74.0432 93.5103 73.1947 93.4572 72.3961C93.3511 71.5976 92.5017 71.0985 91.2808 71.2482C90.0599 71.3979 89.4229 72.1965 89.4229 72.6956C89.3698 73.2945 89.7945 74.4424 91.7055 74.1929Z" fill="#4C60AD"/>
<path d="M85.2815 67.8044C85.3877 67.3552 85.9185 66.0576 86.874 65.2091C87.8295 64.3606 89.6344 63.0131 90.9615 64.1111C92.2886 65.1592 90.5899 66.956 89.7405 67.9042C88.785 68.9523 86.7148 70.4996 85.6 69.6511C85.0692 69.2518 85.1223 68.5032 85.2815 67.8044ZM85.9716 69.152C86.874 69.7509 88.6789 68.3534 89.369 67.5549C90.006 66.8561 91.5454 65.2091 90.5368 64.3606C89.5282 63.5621 87.8826 64.8597 87.1925 65.5086C86.5024 66.1574 86.0247 67.1556 85.8654 67.505C85.6531 68.2536 85.7062 68.9523 85.9716 69.152Z" fill="#4C60AD"/>
<path d="M79.0179 74.1929C80.2919 72.8453 81.619 71.5477 82.5214 70.6493C83.3176 70.4995 84.2201 70.3498 84.9102 70.25C84.6447 70.3997 84.4324 70.5994 84.2201 70.799C83.5831 71.4977 83.3176 72.3961 83.1053 72.7455C83.0522 72.8453 82.6276 73.1947 82.0436 73.7437C81.0881 73.8435 80.0795 73.9932 79.0179 74.1929Z" fill="#4C60AD"/>
<path d="M72.3292 75.3408C72.4884 75.3408 84.1668 72.446 84.3261 72.446C84.4853 72.446 85.8655 72.995 86.7679 72.9451C87.6704 72.9451 89.1036 72.7954 89.1567 72.7455C89.2098 72.6956 89.316 71.9469 89.2629 71.897C89.2098 71.897 88.3074 72.1466 87.458 72.1466C86.6087 72.1466 84.7508 71.5476 84.0607 70.6493C84.0076 70.5994 73.5501 73.7437 72.9662 74.143C72.4884 74.4424 72.3292 75.3408 72.3292 75.3408Z" fill="#4C60AD"/>
<path d="M82.5226 72.1965C82.6287 72.2464 82.7349 72.2464 82.788 72.1965H82.8411C83.0534 71.9968 82.8941 71.6475 82.6287 71.6974C82.3102 71.6974 82.2571 72.0967 82.5226 72.1965Z" fill="#4C60AD"/>
<path d="M87.9899 31.8692C97.0141 34.0653 113.258 47.3413 117.186 54.179C118.301 56.1255 114.479 59.3197 113.948 59.719C112.302 60.9668 105.932 56.4249 103.756 54.8777C100.624 52.6817 88.68 45.7941 86.6628 43.2986C83.3716 39.2559 82.2568 30.4718 87.9899 31.8692Z" fill="#E9AB9E"/>
<path d="M116.867 55.5266C116.814 57.3733 114.903 59.17 112.408 60.8669C108.214 63.612 102.269 66.7064 100.198 67.7046C98.5528 68.5032 94.0407 63.4124 95.8455 61.6655C97.9689 59.719 100.251 57.523 102.163 55.5765C104.445 53.2307 106.834 51.384 109.541 50.8849C112.514 50.3858 116.92 53.7797 116.867 55.5266Z" fill="#E9AB9E"/>
<path d="M97.1199 60.6174L91.9176 64.8098C91.9176 64.8098 91.493 65.1093 90.856 65.5585C89.7412 66.4568 88.0425 68.004 87.2463 69.8507C86.6093 71.2981 83.902 74.5423 85.7068 74.692C88.4672 74.8916 92.8731 72.0468 95.315 69.6012L102.057 66.8561C102.057 66.8561 101.313 61.7154 97.1199 60.6174Z" fill="#E9AB9E"/>
<path d="M115.116 55.7761C114.638 55.7761 114.213 56.0756 114.213 56.5248C114.213 56.9241 114.638 57.2734 115.116 57.0738C115.434 56.924 115.487 56.4249 115.063 56.375C115.01 56.375 115.01 56.4749 115.063 56.4749C115.275 56.5747 115.169 56.8242 114.957 56.8741C114.797 56.8741 114.638 56.8242 114.585 56.6745C114.479 56.4749 114.585 56.2752 114.797 56.1754C114.957 56.0756 115.222 56.0756 115.434 56.1754C115.647 56.2752 115.753 56.5248 115.806 56.7244C115.806 56.7743 115.912 56.7743 115.912 56.7244C115.912 56.2253 115.594 55.7761 115.116 55.7761Z" fill="#AB8177"/>
<path d="M86.4501 31.2703C94.3065 32.6678 114.478 47.3912 117.77 53.63C120.583 58.9704 100.305 68.8026 99.2964 68.6529C96.8545 68.3534 93.5633 62.514 94.0411 61.7653C94.5188 61.0167 101.579 55.0774 101.951 54.6282C102.322 54.179 90.8561 48.5891 86.6094 44.2968C82.4157 40.1044 81.5133 30.4219 86.4501 31.2703Z" fill="#00A4EA"/>
<path d="M95.0505 50.4857C93.0334 48.6889 89.2644 46.5428 86.8226 45.2451C86.7695 45.1952 86.7164 45.295 86.7695 45.3449C87.8842 45.9938 88.8928 46.7424 89.9545 47.4411C89.3175 47.2415 88.6805 47.0918 87.9904 46.942C87.9373 46.942 87.8842 46.992 87.9373 47.0419C88.8928 47.3413 89.7953 47.7406 90.7508 48.09H90.8038C91.7063 48.6889 94.095 50.0864 94.9975 50.6853C95.2098 50.7851 95.2098 50.6354 95.0505 50.4857Z" fill="#0079A3"/>
<path d="M85.2817 31.3701C85.3348 31.3701 85.3348 31.42 85.2817 31.4699C82.6806 32.1687 83.4768 36.96 84.0077 38.7069C84.5916 40.7532 85.6533 42.6498 86.8742 44.3966C86.9273 44.4465 86.8211 44.5463 86.768 44.4465C85.0163 42.2505 83.6892 39.7051 83.3707 36.96C83.1583 35.3629 82.9991 31.7195 85.2817 31.3701Z" fill="#0079A3"/>
<path d="M103.118 67.4551C103.011 67.6547 99.2955 69.152 98.9239 69.1021C98.5524 69.0522 94.5711 66.5567 93.4032 61.7653C93.2971 61.3661 95.6328 59.2698 96.1105 59.2698C96.5883 59.2698 98.3931 62.8134 99.0301 63.7118C99.8795 64.8597 103.33 67.1057 103.118 67.4551Z" fill="#0079A3"/>
<path d="M80.3992 93.5081C80.3461 93.5081 80.3461 93.558 80.293 93.558C80.5584 94.0072 80.8769 94.4064 81.2485 94.8057C81.3016 94.8556 81.4078 94.8057 81.3547 94.7059C81.0893 94.2567 80.8769 93.8075 80.6646 93.3583C80.5584 93.4082 80.4522 93.4582 80.3992 93.5081Z" fill="#F4F3E4"/>
<path d="M79.656 91.3619C79.4967 91.4618 79.3905 91.5117 79.2313 91.5616C79.4436 92.0108 79.656 92.46 79.9214 92.8592C80.0276 92.8093 80.1868 92.7095 80.293 92.6596C80.0806 92.2104 79.8683 91.8111 79.656 91.3619Z" fill="#F4F3E4"/>
<path d="M78.328 89.3156C78.275 89.3655 78.2219 89.4155 78.1688 89.4155C78.3811 89.8646 78.5935 90.2639 78.8058 90.7131C78.912 90.6632 79.0181 90.6133 79.1243 90.5634C79.1774 90.5634 79.1774 90.5135 79.2305 90.5135C79.0181 90.0643 78.8058 89.6151 78.5404 89.2158C78.4873 89.2657 78.3811 89.2657 78.328 89.3156Z" fill="#F4F3E4"/>
<path d="M77.374 87.2194C77.3209 87.3192 77.2148 87.3692 77.1086 87.469C77.2148 87.6187 77.3209 87.7684 77.4271 87.9681C77.5863 88.2176 77.6925 88.4173 77.8518 88.6668C77.9049 88.6668 77.9049 88.6169 77.9049 88.6169C77.9579 88.567 78.011 88.5171 78.1172 88.4672C77.8518 87.9681 77.5863 87.5688 77.374 87.2194Z" fill="#F4F3E4"/>
<path d="M76.1517 85.5225C76.0455 85.6223 75.9925 85.6722 75.8863 85.772C76.1517 86.0715 76.364 86.3709 76.5764 86.7203C76.6295 86.6704 76.6825 86.6205 76.7887 86.5207L76.8418 86.4708C76.6295 86.1214 76.4171 85.8219 76.1517 85.5225Z" fill="#F4F3E4"/>
<path d="M74.8783 84.0251C74.7721 84.125 74.719 84.2248 74.6129 84.2747C74.8783 84.5242 75.0906 84.7738 75.3029 85.0233C75.4091 84.9734 75.4622 84.8736 75.5684 84.8237C75.356 84.5742 75.1437 84.3246 74.8783 84.0251Z" fill="#F4F3E4"/>
<path d="M73.3394 82.5778C73.2863 82.6776 73.1802 82.7275 73.1271 82.8273C73.4456 83.0769 73.711 83.3763 74.0295 83.6259C74.0826 83.5261 74.1888 83.4761 74.2949 83.3763C73.9764 83.1268 73.6579 82.8772 73.3394 82.5778Z" fill="#F4F3E4"/>
<path d="M71.6926 81.6794C71.958 81.879 72.2234 82.0787 72.4888 82.3282C72.5419 82.2783 72.6481 82.1785 72.7012 82.1286C72.4358 81.929 72.1703 81.7293 71.8518 81.5297C71.7457 81.3799 71.5864 81.5796 71.6926 81.6794Z" fill="#F4F3E4"/>
<path d="M111.835 73.7537L112.039 73.8083L110.73 78.1287L110.526 78.074L111.835 73.7537Z" fill="#4C60AD"/>
<path d="M111.506 73.6439C111.453 73.8935 111.559 74.143 111.825 74.1929C112.09 74.2428 112.356 74.143 112.409 73.8935C112.462 73.6439 112.356 73.3943 112.09 73.3444C111.825 73.2446 111.559 73.3944 111.506 73.6439Z" fill="#00A4EA"/>
<path d="M100.816 77.1176L105.002 79.2827L104.9 79.4576L100.714 77.2925L100.816 77.1176Z" fill="#4C60AD"/>
<path d="M100.519 77.5868C100.731 77.6866 101.05 77.6367 101.156 77.3872C101.262 77.1875 101.209 76.8881 100.943 76.7882C100.731 76.6884 100.413 76.7384 100.306 76.9879C100.2 77.1875 100.306 77.487 100.519 77.5868Z" fill="#00A4EA"/>
<path d="M117.473 77.2153L117.586 77.3843L113.543 79.7767L113.43 79.6077L117.473 77.2153Z" fill="#4C60AD"/>
<path d="M117.239 76.938C117.027 77.0877 116.921 77.3373 117.08 77.5868C117.239 77.7864 117.505 77.8863 117.77 77.7365C117.982 77.5868 118.088 77.3373 117.929 77.0877C117.77 76.8382 117.451 76.7883 117.239 76.938Z" fill="#00A4EA"/>
<path d="M102.163 80.7311H115.912C115.169 77.8364 112.355 75.6403 109.011 75.6403C105.667 75.6403 102.907 77.8364 102.163 80.7311Z" fill="#435CCC"/>
<path d="M101.844 80.7311H116.283V82.7774H101.844V80.7311Z" fill="#6A9988"/>
<path d="M114.534 73.9619L114.717 74.0636L112.283 77.9289L112.1 77.8272L114.534 73.9619Z" fill="#4C60AD"/>
<path d="M114.213 73.7438C114.053 73.9434 114.16 74.2429 114.372 74.3926C114.584 74.5423 114.903 74.4425 115.062 74.2429C115.221 74.0432 115.115 73.7438 114.903 73.594C114.637 73.4942 114.319 73.5441 114.213 73.7438Z" fill="#00A4EA"/>
<path d="M107.096 71.9275L107.809 76.3691L107.599 76.3989L106.886 71.9573L107.096 71.9275Z" fill="#4C60AD"/>
<path d="M106.462 71.9969C106.516 72.2465 106.728 72.3962 106.993 72.3962C107.259 72.3463 107.418 72.1466 107.418 71.8971C107.365 71.6475 107.153 71.4978 106.887 71.4978C106.622 71.5477 106.462 71.7474 106.462 71.9969Z" fill="#00A4EA"/>
<path d="M109.71 74.8552L109.92 74.883L109.254 79.3313L109.044 79.3035L109.71 74.8552Z" fill="#4C60AD"/>
<path d="M109.382 74.7919C109.329 75.0414 109.541 75.291 109.807 75.291C110.072 75.3409 110.338 75.1412 110.338 74.8917C110.391 74.6421 110.178 74.3926 109.913 74.3926C109.647 74.3427 109.382 74.5423 109.382 74.7919Z" fill="#00A4EA"/>
<path d="M102.705 75.7952L106.238 78.8187L106.095 78.9664L102.562 75.9429L102.705 75.7952Z" fill="#4C60AD"/>
<path d="M102.323 76.2393C102.536 76.389 102.854 76.389 103.013 76.1893C103.173 75.9897 103.173 75.6902 102.96 75.5405C102.748 75.3908 102.43 75.3908 102.27 75.5904C102.111 75.7401 102.111 76.0396 102.323 76.2393Z" fill="#00A4EA"/>
<path d="M29.757 68.5531H31.668V82.8773H29.757V68.5531Z" fill="white"/>
<path d="M26.7308 82.8274H34.7464C35.2241 82.8274 35.5957 82.4281 35.4896 81.9789L35.4365 81.6795V81.5796L35.1711 80.0823V79.9825L34.9056 78.5351V78.4353L34.6402 76.9879V76.8881L34.3748 75.4407L34.3217 75.291L34.0563 73.8436V73.6939L33.7909 72.2465L33.7378 72.0967L33.4724 70.6493L33.4193 70.4996L33.3662 70.3499C33.3131 70.0005 32.9946 69.751 32.623 69.751H28.9603C28.5887 69.751 28.2702 70.0005 28.2171 70.3499L28.164 70.7492L28.1109 70.9488L27.7924 72.5958L27.7393 72.7955L27.4208 74.4425L27.3678 74.6421L27.0492 76.2892L26.9962 76.4888L26.6777 78.1358L26.6246 78.3355L26.3061 79.9825L26.253 80.1822L25.9345 81.8292L25.8814 81.9789C25.8814 82.4281 26.253 82.8274 26.7308 82.8274Z" fill="#435CCC"/>
<g opacity="0.3">
<path d="M28.0567 70.9988C29.2776 70.6993 30.4985 70.3 31.6133 69.8009H31.1355C30.1269 70.2002 29.1183 70.5496 28.1097 70.7991L28.0567 70.9988Z" fill="#F5C1B8"/>
<path d="M27.6856 72.8454C29.7028 72.3962 31.5607 71.6975 33.3125 70.6993L33.2594 70.5496C31.5076 71.4978 29.6497 72.1966 27.6856 72.6458V72.8454Z" fill="#F5C1B8"/>
<path d="M27.3666 74.6921C29.5961 74.2429 31.7195 73.4443 33.6836 72.2964L33.6305 72.1467C31.7195 73.2447 29.5961 74.0433 27.4197 74.4924L27.3666 74.6921Z" fill="#F5C1B8"/>
<path d="M26.9952 76.5387C29.4902 76.0895 31.8259 75.1912 33.9492 73.8935V73.7438C31.8259 74.9915 29.5433 75.84 27.1014 76.3391L26.9952 76.5387Z" fill="#F5C1B8"/>
<path d="M26.6766 78.3355C29.3839 77.8863 31.985 76.8881 34.2676 75.4408L34.2145 75.291C31.9319 76.6885 29.3839 77.6368 26.6766 78.1359V78.3355Z" fill="#F5C1B8"/>
<path d="M26.3052 80.1822C29.2779 79.7829 32.0913 78.6849 34.5332 77.0379V76.938C32.0383 78.4853 29.2779 79.5334 26.3583 80.0325L26.3052 80.1822Z" fill="#F5C1B8"/>
<path d="M25.9866 81.9789C29.2247 81.5796 32.2505 80.4317 34.8516 78.585V78.4852C32.1974 80.2321 29.2247 81.3301 26.0397 81.8292L25.9866 81.9789Z" fill="#F5C1B8"/>
<path d="M29.2776 82.8274H29.9677C31.8256 82.1786 33.5774 81.2802 35.1699 80.1323V80.0325C33.312 81.2802 31.3479 82.2285 29.2776 82.8274Z" fill="#F5C1B8"/>
<path d="M33.4718 82.8274H33.7372C34.3211 82.478 34.852 82.0788 35.3828 81.6795V81.5797C34.7989 82.0788 34.1619 82.478 33.4718 82.8274Z" fill="#F5C1B8"/>
</g>
<path d="M36.7102 80.3817H47.8047V81.7792H36.7102V80.3817Z" fill="white"/>
<path d="M37.7714 79.9326V82.2284C37.7714 82.5279 38.0368 82.7774 38.3553 82.7774H46.1055C46.2117 82.7774 46.3179 82.7275 46.371 82.7275C46.424 82.6776 46.4771 82.6776 46.5302 82.6277C46.6364 82.5279 46.6895 82.4281 46.6895 82.2783V79.9825C46.6895 79.683 46.424 79.4335 46.1055 79.4335H38.3553C38.1961 79.4335 38.0368 79.5333 37.9306 79.6331C37.8775 79.683 37.8776 79.7329 37.8245 79.7828C37.7714 79.7828 37.7714 79.8328 37.7714 79.9326Z" fill="#435CCC"/>
<path d="M45.2562 79.3835C45.6809 80.0324 46.1586 80.6313 46.6895 81.2302V80.9308C46.2117 80.4317 45.787 79.9326 45.4154 79.3835H45.2562Z" fill="white"/>
<path d="M43.3443 79.3835C44.1405 80.6313 45.1491 81.7792 46.3701 82.6776C46.4231 82.6277 46.4762 82.6277 46.5293 82.5778C45.3615 81.6295 44.3529 80.5814 43.5035 79.3835H43.3443Z" fill="white"/>
<path d="M41.4347 79.3835C42.284 80.6812 43.2926 81.8291 44.5666 82.7774H44.832C43.6111 81.7792 42.4964 80.6812 41.5939 79.3835H41.4347Z" fill="white"/>
<path d="M39.5226 79.3835C40.3719 80.6812 41.3805 81.8291 42.6545 82.7774H42.9199C41.699 81.7792 40.5842 80.6812 39.6818 79.3835H39.5226Z" fill="white"/>
<path d="M37.8247 79.7329C38.621 80.8809 39.5765 81.929 40.7443 82.7774H41.0098C39.8419 81.8291 38.7802 80.781 37.9309 79.5832C37.8778 79.6331 37.8247 79.683 37.8247 79.7329Z" fill="white"/>
<path d="M37.7706 81.6295V81.8791C38.0891 82.1785 38.4607 82.478 38.8322 82.7275H39.0977C38.6199 82.3782 38.1952 82.0288 37.7706 81.6295Z" fill="white"/>
<path d="M27.6882 81.2968L37.8984 77.2151L38.48 78.5012L28.2698 82.5829L27.6882 81.2968Z" fill="white"/>
<path d="M28.5365 80.4816L29.492 82.5778C29.5981 82.8772 29.9697 82.977 30.2351 82.8772L37.4014 80.0324C37.5076 79.9824 37.5607 79.9325 37.6138 79.8826C37.6669 79.8327 37.6669 79.7828 37.72 79.7329C37.773 79.6331 37.773 79.4833 37.72 79.3336L36.7644 77.2374C36.6583 76.9379 36.2867 76.8381 36.0213 76.9379L28.855 79.7828C28.6957 79.8327 28.5895 79.9824 28.5365 80.1322C28.5365 80.1821 28.5365 80.232 28.5365 80.2819C28.4834 80.3318 28.4834 80.3817 28.5365 80.4816Z" fill="#435CCC"/>
<path d="M35.2266 77.1875C35.8636 77.6367 36.5537 78.0359 37.2969 78.3354L37.1907 78.0859C36.5537 77.7864 35.9698 77.4869 35.3859 77.1376L35.2266 77.1875Z" fill="#F5C1B8"/>
<path d="M33.4209 77.9361C34.6949 78.7846 36.0751 79.4833 37.6145 79.8327C37.6676 79.7828 37.6676 79.7329 37.7207 79.683C36.2874 79.2338 34.8542 78.6349 33.6333 77.8363L33.4209 77.9361Z" fill="#F5C1B8"/>
<path d="M31.6692 78.6349C32.9432 79.5333 34.3764 80.1821 35.969 80.5814L36.2344 80.4815C34.6949 80.0324 33.2086 79.4334 31.8815 78.585L31.6692 78.6349Z" fill="#F5C1B8"/>
<path d="M29.9172 79.3336C31.1912 80.232 32.6245 80.8808 34.217 81.2801L34.4824 81.1803C32.943 80.7311 31.4566 80.1322 30.1296 79.2837L29.9172 79.3336Z" fill="#F5C1B8"/>
<path d="M28.4841 80.232C29.705 81.0306 30.9791 81.5796 32.4123 81.9789L32.6777 81.879C31.1914 81.4798 29.8112 80.8808 28.5372 80.0823C28.4841 80.1322 28.4841 80.1821 28.4841 80.232Z" fill="#F5C1B8"/>
<path d="M29.2271 82.0287L29.3333 82.2783C29.7579 82.428 30.1826 82.5778 30.6604 82.6776L30.9258 82.5778C30.3419 82.428 29.7579 82.2284 29.2271 82.0287Z" fill="#F5C1B8"/>
<path d="M103.384 77.9362C104.445 78.1358 105.613 78.0859 106.728 78.1857C107.577 78.2856 108.958 78.3854 109.488 79.0342C109.754 79.3836 109.754 79.9326 109.701 80.282C109.648 80.7811 109.435 81.3301 109.064 81.7294C108.268 82.6277 106.94 82.8773 105.507 82.9272C104.233 82.9771 103.012 82.8773 101.738 82.8773C101.473 82.8773 101.473 82.5778 101.738 82.5778C102.641 82.5778 103.543 82.6776 104.445 82.6776C105.773 82.6776 107.312 82.6776 108.268 81.9789C108.745 81.6295 109.064 81.1803 109.223 80.6812C109.329 80.282 109.435 79.683 109.17 79.2838C108.745 78.6349 107.153 78.5351 106.41 78.4852C105.401 78.3854 104.286 78.4353 103.278 78.2357C103.012 78.1857 103.118 77.8863 103.384 77.9362Z" fill="white"/>
<path d="M98.2347 75.79C98.7656 75.6403 99.3495 75.3908 99.668 75.0414C99.8803 74.7918 100.04 74.3926 99.7211 74.0931C99.5087 73.8935 99.0841 73.7936 98.7656 73.7437C97.8101 73.5441 96.8015 73.594 95.899 73.594C94.9435 73.6439 93.988 73.7437 93.0325 73.8935C92.8202 73.9434 92.6609 73.6439 92.9264 73.594C94.0411 73.3944 95.262 73.2945 96.4299 73.2945C97.3854 73.2945 98.5532 73.2446 99.5087 73.6439C100.252 73.9434 100.517 74.5922 100.146 75.0913C99.8272 75.5904 99.1372 75.8899 98.4471 76.0895C98.2347 76.0895 98.0224 75.8399 98.2347 75.79Z" fill="white"/>
<path d="M103.756 78.1358C103.809 78.2856 102.588 79.3337 102.535 80.4317C102.482 81.5297 102.27 82.8274 102.004 82.9272C101.739 83.027 100.2 82.9272 99.4033 82.9272C98.607 82.9272 96.0059 83.1268 93.2986 82.3782C90.5914 81.6295 90.4321 79.6331 90.3259 79.4335C90.2198 79.2339 89.9543 78.7348 89.9013 78.3854C89.8482 78.036 90.3259 77.9362 90.4321 77.487C90.5383 77.0378 90.0605 77.0877 90.2729 76.3391C90.5383 75.5405 92.29 74.2429 92.3962 74.1929C92.5024 74.143 92.6085 73.6938 92.6616 73.594C92.7147 73.4942 95.1566 73.4443 96.5898 74.0432C98.0231 74.6421 100.783 76.4389 101.58 76.938C102.429 77.4371 103.703 77.9362 103.756 78.1358Z" fill="white"/>
<path d="M102.801 78.2856C102.27 78.8346 101.898 79.4834 101.686 80.1822C101.474 80.8809 101.527 81.5796 101.633 82.3283H101.58C101.049 80.8809 101.633 79.2838 102.801 78.2856Z" fill="#F4F3E4"/>
<path d="M90.8046 80.1821C92.2909 81.1803 94.0958 81.7793 95.9537 81.9789C96.8561 82.0787 97.7055 82.0787 98.6079 82.1286C99.5103 82.1785 100.36 82.2284 101.209 82.4281C99.3511 82.1286 97.4931 82.3283 95.6352 82.0787C93.8303 81.8292 92.1847 81.1304 90.8046 80.1821C90.7515 80.1821 90.7515 80.1821 90.8046 80.1821Z" fill="#F4F3E4"/>
<path d="M92.5565 74.193C93.3527 74.143 94.2021 74.2429 94.9983 74.4425C95.8477 74.6421 96.6439 75.0414 97.3871 75.4407C99.0858 76.3391 100.731 77.2375 102.377 78.1358C100.784 77.2874 99.1388 76.4888 97.5463 75.6403C96.7501 75.2411 96.0069 74.8418 95.1576 74.5922C94.2551 74.3427 93.4058 74.2429 92.5565 74.193C92.5034 74.193 92.5034 74.193 92.5565 74.193Z" fill="#F4F3E4"/>
<path d="M90.1133 78.4852C91.4935 79.4834 93.1922 80.1822 94.8908 80.6314C95.7402 80.8809 96.6426 81.0306 97.545 81.1305C98.4475 81.2303 99.3499 81.2802 100.199 81.4798C99.2437 81.2802 98.2351 81.2802 97.2796 81.1804C96.4303 81.0805 95.5278 80.8809 94.6785 80.6314C93.0329 80.2321 91.4404 79.4834 90.1133 78.4852Z" fill="#F4F3E4"/>
<path d="M90.6448 77.7864C91.9719 78.6349 93.5644 79.2837 95.1039 79.8327C96.6964 80.3818 98.4482 80.4816 100.094 80.8809C99.1913 80.6812 98.2889 80.5814 97.3865 80.4317C96.5371 80.2819 95.6878 80.1322 94.8915 79.8327C93.4052 79.3336 91.8127 78.6848 90.6448 77.7864C90.5918 77.7864 90.5918 77.7864 90.6448 77.7864Z" fill="#F4F3E4"/>
<path d="M90.4318 77.1876C91.2811 77.3872 92.0774 77.4371 92.9267 77.5868C93.7761 77.7366 94.6254 78.036 95.4217 78.3355C97.0673 78.9344 98.6598 79.5832 100.199 80.3319C98.6067 79.6331 96.9611 78.9843 95.3155 78.3854C94.5193 78.1358 93.723 77.8364 92.8737 77.6867C92.0774 77.5369 91.2281 77.487 90.4318 77.1876Z" fill="#F4F3E4"/>
<path d="M91.0156 76.1395C92.7673 76.2892 94.5722 76.6885 96.2178 77.2375C97.8103 77.7865 99.2436 78.5351 100.518 79.4834C97.8634 77.5869 94.3599 76.5887 91.0156 76.1395C90.9625 76.1894 90.9625 76.1395 91.0156 76.1395Z" fill="#F4F3E4"/>
<path d="M91.8658 75.291C92.6621 75.5405 93.5114 75.5405 94.3077 75.6403C95.1039 75.7402 95.8471 75.9897 96.5372 76.2393C98.0235 76.8382 99.4568 77.6367 100.678 78.5351C99.3506 77.7365 98.0766 76.8881 96.5372 76.3391C95.7409 76.0396 94.9447 75.7901 94.0953 75.6902C93.4053 75.5904 92.609 75.5405 91.8658 75.291Z" fill="#F4F3E4"/>
</svg>
