<svg width="125" height="98" viewBox="0 0 125 98" fill="none" xmlns="http://www.w3.org/2000/svg">
<rect width="40" height="41" rx="20" fill="#435CCC"/>
<path d="M14.62 24.56V22.38L21.22 13.5H24.62L18.16 22.38L16.58 21.92H27.6V24.56H14.62ZM22.16 27.5V24.56L22.26 21.92V19.3H25.32V27.5H22.16Z" fill="white"/>
<path opacity="0.2" d="M117.735 32.8087C124.477 40.395 107.33 88.7078 95.9175 93.8486C87.9549 97.4421 29.8812 75.9309 29.3504 63.1539C28.5011 44.0384 109.295 23.3258 117.735 32.8087Z" fill="#00A4EA"/>
<path d="M124.637 82.4192H19V85.6134H124.637V82.4192Z" fill="#6A9988"/>
<path d="M69.6404 31.1616C60.7754 33.3077 42.1961 52.2735 40.9752 58.7618C40.7098 60.0595 42.4085 62.4552 42.9924 62.8045C44.7441 63.9025 48.1415 63.8526 50.7426 62.5051C54.14 60.7083 68.3664 44.2879 70.1713 41.6926C73.0909 37.4004 75.7451 29.7142 69.6404 31.1616Z" fill="#00A4EA"/>
<path d="M77.4442 29.1153C70.7026 28.6661 66.7213 34.3559 64.014 41.5429C60.5105 50.8761 57.2193 80.7222 58.1217 82.4691H98.8901C99.5801 81.5707 92.6793 47.8316 89.0165 39.1472C87.5301 35.6535 83.2304 29.5146 77.4442 29.1153Z" fill="#00A4EA"/>
<path opacity="0.3" d="M62.8993 43.6391C62.5277 44.9867 62.1561 46.3343 61.8907 47.6818C61.8376 47.2326 61.7845 46.7835 61.7845 46.3842C61.7845 46.2844 61.6783 46.2844 61.6253 46.3842C61.5191 47.1827 61.4129 48.131 61.6253 48.9296C61.3068 50.6265 61.0414 52.3235 60.9883 54.0703C60.9883 54.1701 61.1475 54.22 61.2006 54.1202C61.8907 50.6764 62.3154 47.1328 63.1116 43.689C63.1116 43.5892 62.9524 43.5393 62.8993 43.6391Z" fill="#1A2C6D"/>
<path d="M83.9739 31.4112C91.8834 36.0029 105.526 53.671 107.225 61.2573C107.702 63.4035 101.492 65.2002 100.855 65.4498C98.8905 66.1984 95.1746 61.7065 92.9451 59.8599C90.0255 57.4143 80.258 44.8869 79.1433 41.9921C77.2853 37.2007 78.931 28.4665 83.9739 31.4112Z" fill="#00A4EA"/>
<path opacity="0.3" d="M85.141 50.6765C83.867 48.3307 82.009 46.3343 80.1511 44.3878C80.098 44.3379 80.0449 44.3878 80.0449 44.4377C80.8412 45.386 81.5843 46.3842 82.3275 47.4323C81.7967 47.033 81.2128 46.6837 80.6819 46.3343C80.6288 46.2844 80.5758 46.3842 80.6289 46.3842C81.4251 46.9332 82.1152 47.6319 82.9115 48.2309H82.9645C83.6015 49.0793 84.1855 49.9278 84.8756 50.7763C84.9286 50.9759 85.1941 50.8262 85.141 50.6765Z" fill="#1A2C6D"/>
<path opacity="0.3" d="M84.9819 33.2578C79.9389 32.9085 79.6204 40.2452 80.5759 43.2897C79.8859 40.1454 79.992 33.3577 84.9288 33.3577C85.0881 33.3577 85.0881 33.2578 84.9819 33.2578Z" fill="#1A2C6D"/>
<path d="M90.3965 58.4125C92.8914 62.6049 103.243 66.9471 105.048 66.2982C106.906 65.6494 107.543 62.2056 107.596 60.5087C107.649 56.466 103.455 53.5712 101.385 52.6229C99.3146 51.6746 92.9976 52.1238 91.1928 52.9224C90.2903 53.3217 88.7509 55.6674 90.3965 58.4125Z" fill="#0079A3"/>
<path d="M102.925 66.7973C100.802 67.0469 96.8739 66.5977 93.9543 65.0005C89.1237 62.3553 83.9745 57.8634 82.0104 56.3661C80.4179 55.1683 82.7536 50.1274 85.514 50.7762C88.5928 51.4749 91.884 52.0739 94.8567 52.9722C98.4133 54.0204 103.509 56.4659 105.261 58.8117C107.172 61.3072 106.801 66.3481 102.925 66.7973Z" fill="#F5C1B8"/>
<path d="M86.947 51.0258L81.9041 49.5784C81.9041 49.5784 78.5598 45.6355 76.3834 47.033C74.897 47.9813 69.5886 48.0811 70.7034 49.6283C72.1367 51.6247 75.534 53.5213 79.356 54.3199L85.5137 59.1611C85.5137 59.1112 88.2741 55.3181 86.947 51.0258Z" fill="#F5C1B8"/>
<path d="M100.642 65.2002C100.429 64.751 99.8985 64.4516 99.4208 64.7011C98.9961 64.9008 98.8369 65.4498 99.2615 65.7991C99.58 66.0487 100.111 65.8491 100.005 65.3999C100.005 65.35 99.8986 65.3999 99.8986 65.4498C99.8986 65.6993 99.5801 65.6993 99.4739 65.5496C99.3677 65.3999 99.4208 65.2501 99.527 65.1004C99.6862 64.9008 99.9516 64.9507 100.164 65.0505C100.376 65.1503 100.482 65.3999 100.482 65.5995C100.482 65.8491 100.27 66.0487 100.111 66.1984C100.058 66.2483 100.111 66.2982 100.164 66.2982C100.482 66.1485 100.854 65.5995 100.642 65.2002Z" fill="#D691A1"/>
<path d="M69.8001 54.819C68.7915 55.7673 68.6323 56.9651 68.473 58.2128C68.3669 58.7619 67.9422 61.7066 66.6682 60.1094C66.1373 59.4107 66.1373 58.2129 66.1373 57.4143C66.2435 53.721 67.9953 50.4768 70.1717 47.5321C70.2248 47.4822 70.1186 47.3824 70.0656 47.4323C68.473 48.9795 67.146 51.0258 66.4559 53.0721C65.8189 54.9687 65.288 57.3145 65.8189 59.3109C66.0312 60.1593 66.9867 62.2056 68.1546 61.0078C68.7916 60.359 68.8446 59.3109 68.9508 58.5123C69.1631 57.2646 69.2693 56.0667 70.0125 54.9687C70.0656 54.8689 69.9063 54.7691 69.8001 54.819Z" fill="white"/>
<path d="M92.5193 52.6229C91.9354 50.6764 89.2281 49.5285 87.7948 48.2308C86.0431 46.6836 84.2382 44.9368 81.6902 45.0865C81.6371 45.0865 81.6371 45.1863 81.6902 45.1863C83.8136 45.4858 85.353 46.6836 86.8393 48.0312C88.1133 49.1791 89.5466 50.0775 90.8206 51.1755C91.1922 51.475 91.5638 51.8244 91.7761 52.2236C91.9885 52.5231 92.2008 52.8226 92.0946 53.1719C91.8823 54.1701 90.9798 54.3198 90.2897 53.9705C89.3873 53.7209 88.6973 52.9723 88.0603 52.3734C86.9455 51.3253 85.8307 50.4768 84.3444 50.0276C84.1851 49.9777 84.079 50.2272 84.2382 50.3271C85.5653 50.9759 86.6801 51.7744 87.6887 52.7726C88.3788 53.4215 89.1219 54.1701 90.0774 54.5195C91.4576 54.9687 92.997 54.22 92.5193 52.6229Z" fill="white"/>
<path d="M85.7788 50.8261C86.1504 51.1755 82.3283 50.7762 78.5594 52.573C77.7631 52.9224 75.7459 54.3697 74.4719 54.7191C73.1979 55.0685 71.0746 54.769 69.2697 55.1184C68.6327 55.2182 68.6858 50.4269 69.6413 48.131C69.9598 47.3824 71.1807 45.9849 72.4548 45.4858C75.4805 44.3378 81.3198 44.5874 82.3814 45.1863C83.2839 45.6355 82.2222 47.4323 85.7788 50.8261Z" fill="white"/>
<path d="M69.4292 54.1202C70.7032 54.1701 72.0303 54.1701 73.2513 53.9705C74.366 53.8207 75.2154 53.2717 76.1178 52.6728C78.5597 51.1755 81.2669 50.4768 84.1865 50.2771C84.2396 50.2771 84.2396 50.2272 84.1865 50.2272C81.7977 50.1274 79.409 50.6764 77.2856 51.7245C76.1178 52.3234 75.0561 53.1719 73.7821 53.4714C72.3488 53.8207 70.8625 53.671 69.4292 53.8707C69.3231 53.9705 69.3231 54.1202 69.4292 54.1202Z" fill="#F4F3E4"/>
<path d="M70.1726 48.6301C70.9158 48.0811 71.5528 47.3824 72.349 46.8833C73.3046 46.3342 74.6316 46.2344 75.6933 46.1346C77.7636 45.935 79.8339 46.0348 81.8511 46.0348C81.8511 46.0348 81.8511 46.0348 81.8511 45.9849C79.4623 45.7852 77.0735 45.6854 74.7378 46.0348C73.9416 46.1346 73.0391 46.2344 72.349 46.6337C71.4997 47.0829 70.7565 47.8815 70.1726 48.6301C70.1195 48.6301 70.1195 48.5802 70.1726 48.6301Z" fill="#F4F3E4"/>
<path d="M69.9597 52.4233C72.0831 52.3235 73.8879 51.6746 75.7989 50.8761C77.9754 49.9777 80.258 49.3788 82.6468 49.0294V48.9795C80.5234 49.229 78.4531 49.7281 76.489 50.4768C75.5335 50.8262 74.6311 51.2754 73.6225 51.6247C72.4016 52.024 71.2337 52.2236 69.9597 52.3235C69.9067 52.3235 69.9067 52.4233 69.9597 52.4233Z" fill="#F4F3E4"/>
<path d="M69.9078 50.6764C71.5003 49.3289 73.199 48.4305 75.3223 47.9813C77.3926 47.5321 79.569 47.582 81.6924 47.582C81.7454 47.582 81.6924 47.5321 81.6924 47.5321C77.3395 47.3325 73.0928 47.582 69.8016 50.5766C69.7485 50.6764 69.8547 50.7263 69.9078 50.6764Z" fill="#F4F3E4"/>
<path d="M71.9776 52.8226C65.9261 46.2344 62.2633 38.4485 57.8043 30.9121C57.8043 30.8622 57.6981 30.9121 57.7512 30.962C59.7684 34.9548 62.1041 38.8977 64.4398 42.7407C66.6162 46.3343 68.8988 49.9278 71.9246 52.9224C71.9246 52.9224 72.0307 52.8725 71.9776 52.8226Z" fill="white"/>
<path d="M57.6445 30.8622L57.8569 26.52L57.7507 30.8622H57.6445Z" fill="#1A2C6D"/>
<path d="M40.9756 56.2663C40.6571 58.8117 43.0989 62.3553 44.6914 63.4534C46.337 64.6013 51.6454 63.3036 52.8132 62.4053C54.9897 60.7582 56.3699 56.1665 56.3699 52.3733C56.3699 49.3788 53.7687 44.9368 49.8936 44.9368C46.1778 44.9368 41.4002 53.0222 40.9756 56.2663Z" fill="#0079A3"/>
<path d="M49.4692 36.1027C46.9212 40.2951 44.0016 45.3859 41.9844 49.9776C41.2943 51.6247 40.7635 53.1719 40.4981 54.5694C39.5426 59.3108 40.9758 62.3054 44.267 63.3535C46.762 64.1521 47.9829 63.2537 50.6902 60.309C52.7604 58.0631 53.9814 53.7209 54.8307 48.7798C55.3615 45.5357 55.7331 42.042 55.9985 38.7978C56.317 35.4539 50.7433 34.0065 49.4692 36.1027Z" fill="#F5C1B8"/>
<path d="M44.1601 61.6566C44.6909 61.3072 44.8502 60.5586 44.4255 60.1094C44.0539 59.6602 43.2576 59.6602 42.9391 60.2591C42.6737 60.7083 43.2045 61.2573 43.6823 60.9578C43.7354 60.9079 43.6823 60.8081 43.5761 60.8081C43.2576 60.9079 43.1515 60.5087 43.3107 60.309C43.47 60.1593 43.6823 60.1593 43.8946 60.2092C44.1601 60.3589 44.2662 60.6584 44.1601 60.9079C44.0539 61.1575 43.7885 61.407 43.5231 61.4569C43.2046 61.5068 42.886 61.3571 42.6206 61.2074C42.5675 61.1575 42.4614 61.2573 42.5145 61.3072C42.833 61.8063 43.6823 62.006 44.1601 61.6566Z" fill="#D691A1"/>
<path d="M46.2305 41.5928C46.2305 41.5928 49.0439 36.6018 50.6364 34.2061C51.1673 33.4076 51.8043 30.6126 52.4944 29.9638C53.7684 28.716 55.9448 28.6162 56.8472 28.4665C59.4483 28.0672 61.3063 32.7088 60.6162 33.7569C59.9261 34.8051 57.4311 36.1526 56.9003 37.8995C56.3695 39.6463 54.83 45.5357 54.83 45.5357C54.83 45.5357 48.9377 46.6337 46.2305 41.5928Z" fill="#F5C1B8"/>
<path d="M67.4648 25.2224L70.2252 33.2579L70.5968 34.4058C70.5968 34.4058 70.703 37.65 73.4633 37.4004C78.1347 37.0012 80.205 31.9103 80.3642 31.2116C80.4173 30.8622 79.7272 27.9175 79.0371 25.1226C78.4001 22.4774 77.71 19.9319 77.71 19.9319L76.5422 20.5309L67.4648 25.2224Z" fill="#F5C1B8"/>
<path d="M67.4648 25.2224L70.2252 33.2579C72.9856 32.1599 75.4274 30.3132 77.2323 28.0174C77.9754 27.119 78.5594 26.1208 79.0902 25.1226C78.4532 22.4774 77.7631 19.9319 77.7631 19.9319L76.5953 20.5309L67.4648 25.2224Z" fill="#D691A1"/>
<path d="M75.1623 9.15137C78.1349 12.1959 79.8336 21.6788 77.9757 25.6716C76.7017 28.3667 72.6143 30.413 68.9515 30.1635C67.3059 30.0636 65.7133 29.5146 64.5455 28.3168C60.7766 24.5735 59.0248 13.3438 60.8296 10.9481C63.9616 6.7557 71.5526 5.40813 75.1623 9.15137Z" fill="#F5C1B8"/>
<path d="M67.8359 19.7822C67.8359 19.7822 67.889 19.7822 67.889 19.8321C68.0483 20.431 68.3137 21.1297 68.9507 21.1796V21.2296C68.2075 21.2795 67.8359 20.3811 67.8359 19.7822Z" fill="#435CCC"/>
<path d="M68.2606 19.0335C69.2692 18.7341 69.8531 20.6307 68.9507 20.9301C67.9952 21.2296 67.4113 19.2831 68.2606 19.0335Z" fill="#435CCC"/>
<path d="M63.908 20.8802L63.8549 20.9302C64.0672 21.5291 64.1734 22.2278 63.6426 22.5772V22.6271C64.3858 22.3775 64.1734 21.4293 63.908 20.8802Z" fill="#435CCC"/>
<path d="M63.1649 20.431C62.1032 20.6307 62.634 22.5772 63.5895 22.3775C64.545 22.1779 64.0142 20.2314 63.1649 20.431Z" fill="#435CCC"/>
<path d="M69.6407 24.9229C69.5345 25.1226 69.4283 25.3222 69.216 25.422C69.0037 25.5218 68.6851 25.4719 68.4728 25.4719C68.4728 25.4719 68.4197 25.4719 68.4728 25.5218C68.6851 25.7215 69.1098 25.7714 69.3752 25.6216C69.6407 25.4719 69.6937 25.2224 69.6937 24.9728C69.6937 24.9229 69.6407 24.9229 69.6407 24.9229Z" fill="#D691A1"/>
<path d="M68.792 17.9355C68.4735 17.9355 68.2081 17.8856 67.9427 17.8856C67.6242 17.8856 67.3588 17.8856 67.0403 17.686C66.881 17.5862 66.881 17.3366 66.9341 17.1869C67.1464 16.8375 67.5711 16.7876 67.9958 16.7876C68.4204 16.7876 68.792 16.9373 69.1105 17.1869C69.429 17.4364 69.1636 17.9355 68.792 17.9355Z" fill="#435CCC"/>
<path d="M62.0503 19.6324C62.3157 19.5326 62.5281 19.3829 62.7935 19.2332C63.0589 19.0834 63.3243 18.9836 63.4836 18.6842C63.5897 18.5344 63.4836 18.2849 63.3243 18.1851C62.9527 17.9854 62.5281 18.0852 62.2096 18.2849C61.838 18.4845 61.5726 18.7341 61.4133 19.1333C61.2541 19.4827 61.6787 19.8321 62.0503 19.6324Z" fill="#435CCC"/>
<path d="M68.633 23.4755C68.4207 24.0744 67.996 24.5236 67.4652 24.7732C67.2528 24.873 66.9874 24.9728 66.722 25.0227C66.6689 25.0227 66.6158 25.0227 66.5628 25.0227C66.5097 25.0227 66.4566 25.0227 66.4035 25.0227C66.3504 25.0227 66.2442 24.9728 66.2442 24.9229V24.873V24.8231C66.085 24.3739 65.9257 23.6752 65.9257 23.6752C65.7665 23.8249 64.9702 24.4238 64.9171 24.1743C64.4394 22.1279 63.9086 19.882 63.8555 17.7858C63.8555 17.7359 63.9616 17.686 63.9616 17.7858C64.4925 19.7323 64.7048 21.7287 65.1826 23.6752C65.448 23.4755 65.8726 23.1761 66.1381 23.1261C66.1911 23.1261 66.4566 24.5236 66.5097 24.7233C67.359 24.6234 67.8898 24.1743 68.5268 23.4755C68.633 23.3757 68.6861 23.3757 68.633 23.4755Z" fill="#D691A1"/>
<path d="M77.2859 18.5843C75.6934 18.9337 73.7294 13.4436 73.7294 13.4436C73.7294 13.4436 71.0221 14.342 69.3234 11.9463C69.3234 11.9463 65.289 16.3883 61.2547 14.8411C57.8573 13.5434 57.2734 7.65407 58.282 6.45623C58.8659 5.8074 60.0868 5.85731 61.0423 6.70578C61.467 5.95713 62.3163 5.65767 63.1657 6.10686C64.4397 6.75568 65.0236 7.65407 65.0236 7.65407C65.0236 7.65407 70.332 4.90902 72.243 5.75749C73.9947 6.50614 74.4194 7.65407 74.4194 7.65407C74.4194 7.65407 76.5428 7.60416 77.6575 8.95173C78.6661 10.2494 79.7278 18.0852 77.2859 18.5843Z" fill="#435CCC"/>
<path d="M74.4726 13.0443C72.3492 14.9908 69.642 13.3438 69.1111 10.998C69.1111 10.8982 68.9519 10.9481 69.005 11.0479C69.2173 12.3456 70.0136 13.5933 71.3937 14.0425C72.5616 14.3919 73.9418 14.0924 74.6849 13.1441C74.6849 13.0942 74.5257 12.9944 74.4726 13.0443Z" fill="#435CCC"/>
<path d="M78.9851 10.7984C78.5074 8.35284 76.4902 7.45445 73.9422 7.60418C73.8891 7.60418 73.8891 7.6541 73.9422 7.6541C75.2162 7.75392 76.5433 7.75392 77.6049 8.55248C78.7197 9.40095 78.8259 10.7485 78.932 11.9963C79.1444 14.0925 78.932 16.0889 77.8704 17.9356C77.8173 17.9855 77.9235 18.0853 77.9765 17.9855C79.3567 15.9391 79.4098 13.244 78.9851 10.7984Z" fill="#435CCC"/>
<path d="M67.3061 13.5435C65.2359 15.0907 61.9447 16.3384 59.6621 14.342C58.4942 13.3438 57.9634 11.4972 57.8572 10.0997C57.751 8.90184 57.7511 7.05518 58.7596 6.20671V6.1568C57.698 6.85554 57.5918 8.50256 57.5918 9.60058C57.5918 11.1977 58.1757 13.1941 59.3967 14.3919C61.7323 16.6379 65.2889 15.3901 67.4123 13.6433C67.4123 13.5934 67.3592 13.4936 67.3061 13.5435Z" fill="#435CCC"/>
<path d="M76.9141 19.1833C76.9141 19.1833 77.7634 15.44 79.5151 15.5898C81.2138 15.7395 81.4793 20.6307 80.0991 21.8285C78.7189 23.0263 77.498 21.8784 77.498 21.8784L76.9141 19.1833Z" fill="#F5C1B8"/>
<path d="M79.516 16.9872C79.5691 16.9872 79.5691 16.9872 79.516 16.9872C78.5605 17.9355 78.4012 19.1833 78.4543 20.3811C78.6136 19.8321 78.9852 19.4328 79.7284 19.5826C79.7814 19.5826 79.7814 19.6325 79.7284 19.6325C79.1975 19.7323 78.9321 19.9319 78.7197 20.431C78.6136 20.7804 78.6136 21.1298 78.5605 21.5291C78.5605 21.6289 78.3482 21.6788 78.3482 21.5291C78.3482 21.5291 78.3482 21.529 78.3482 21.4791C77.7111 20.1316 78.0297 17.7359 79.516 16.9872Z" fill="#D691A1"/>
<path d="M121.027 85.6633H22.5566V97.5918H121.027V85.6633Z" fill="#6A9988"/>
<g opacity="0.5">
<path d="M121.027 85.6633H22.5566V90.305H121.027V85.6633Z" fill="#976572"/>
</g>
<path d="M27.5968 73.3928L27.3926 73.4474L28.7011 77.7678L28.9054 77.7131L27.5968 73.3928Z" fill="#4C60AD"/>
<path d="M27.9704 73.2857C28.0235 73.5352 27.9173 73.7848 27.6519 73.8347C27.3865 73.8846 27.121 73.7848 27.068 73.5352C27.0149 73.2857 27.121 73.0361 27.3865 72.9862C27.5988 72.8864 27.8642 73.0361 27.9704 73.2857Z" fill="#00A4EA"/>
<path d="M38.6143 76.7789L34.4277 78.9431L34.53 79.1181L38.7166 76.9539L38.6143 76.7789Z" fill="#4C60AD"/>
<path d="M38.9051 77.2286C38.6927 77.3284 38.3742 77.2785 38.2681 77.029C38.1619 76.8293 38.215 76.5299 38.4804 76.43C38.6927 76.3302 39.0112 76.3801 39.1174 76.6297C39.2236 76.8792 39.1705 77.1288 38.9051 77.2286Z" fill="#00A4EA"/>
<path d="M21.992 76.8325L21.8789 77.0014L25.9221 79.3942L26.0352 79.2253L21.992 76.8325Z" fill="#4C60AD"/>
<path d="M22.2375 76.5798C22.4498 76.7295 22.556 76.979 22.3967 77.2286C22.2375 77.4282 21.972 77.5281 21.7066 77.3783C21.4943 77.2286 21.3881 76.979 21.5474 76.7295C21.7066 76.4799 21.972 76.43 22.2375 76.5798Z" fill="#00A4EA"/>
<path d="M37.3131 80.3729H23.5645C24.3076 77.4781 27.1211 75.2821 30.4653 75.2821C33.7565 75.332 36.5169 77.4781 37.3131 80.3729Z" fill="#435CCC"/>
<path d="M37.6321 80.3729H23.1934V82.4192H37.6321V80.3729Z" fill="#6A9988"/>
<path d="M24.9366 73.5885L24.7539 73.6902L27.1885 77.555L27.3712 77.4533L24.9366 73.5885Z" fill="#4C60AD"/>
<path d="M25.2639 73.3856C25.4232 73.5852 25.317 73.8847 25.1047 74.0344C24.8923 74.1841 24.5738 74.0843 24.4146 73.8847C24.2553 73.685 24.3615 73.3856 24.5738 73.2358C24.8392 73.136 25.1047 73.1859 25.2639 73.3856Z" fill="#00A4EA"/>
<path d="M32.3427 71.6057L31.6309 76.0473L31.8408 76.0771L32.5527 71.6355L32.3427 71.6057Z" fill="#4C60AD"/>
<path d="M32.9614 71.6387C32.9083 71.8882 32.696 72.038 32.4305 72.038C32.1651 71.9881 32.0059 71.7884 32.0059 71.5389C32.0589 71.2893 32.2713 71.1396 32.5367 71.1396C32.8552 71.1895 33.0145 71.3891 32.9614 71.6387Z" fill="#00A4EA"/>
<path d="M29.7259 74.4963L29.5156 74.5241L30.1811 78.9724L30.3914 78.9446L29.7259 74.4963Z" fill="#4C60AD"/>
<path d="M30.0946 74.4336C30.1476 74.6832 29.9353 74.9327 29.6699 74.9327C29.4045 74.9827 29.139 74.783 29.139 74.5335C29.086 74.2839 29.2983 74.0344 29.5637 74.0344C29.8291 73.9845 30.0415 74.1841 30.0946 74.4336Z" fill="#00A4EA"/>
<path d="M36.7307 75.4509L33.1973 78.4744L33.3402 78.622L36.8737 75.5985L36.7307 75.4509Z" fill="#4C60AD"/>
<path d="M37.1532 75.881C36.9409 76.0308 36.6224 76.0308 36.4631 75.8311C36.3039 75.6315 36.3039 75.3819 36.5162 75.1823C36.7285 75.0326 36.994 75.0326 37.2063 75.2322C37.4186 75.4318 37.3125 75.6814 37.1532 75.881Z" fill="#00A4EA"/>
<path d="M46.2313 68.145H44.3203V82.4691H46.2313V68.145Z" fill="white"/>
<path d="M49.2575 82.4192H41.2419C40.7641 82.4192 40.3925 82.0199 40.4987 81.5707L40.5518 81.2713V81.1714L40.8172 79.6741V79.5743L41.0826 78.1269V78.0271L41.3481 76.5797V76.4799L41.6135 75.0325V74.8828L41.8789 73.4354V73.2857L42.1443 71.8383L42.1974 71.6885L42.4628 70.2411L42.5159 70.0914V69.9417C42.569 69.5923 42.8875 69.3428 43.2591 69.3428H46.9218C47.2934 69.3428 47.6119 69.5923 47.665 69.9417L47.7181 70.341L47.7712 70.5406L48.0897 72.1876L48.1428 72.3873L48.4613 74.0343L48.5144 74.2339L48.8329 75.881L48.886 76.0806L49.2045 77.7276L49.2575 77.9273L49.576 79.5743L49.6291 79.774L49.9476 81.421L50.0007 81.5707C50.1069 82.0199 49.7353 82.4192 49.2575 82.4192Z" fill="#435CCC"/>
<path d="M47.9316 70.5905C46.7107 70.2911 45.4898 69.8918 44.375 69.3927H44.8528C45.8613 69.792 46.8699 70.1413 47.8785 70.3909L47.9316 70.5905Z" fill="#6A9988"/>
<path d="M48.3027 72.4372C46.2855 71.988 44.3745 71.2893 42.6758 70.2911L42.7289 70.1414C44.4806 71.0896 46.3386 71.7884 48.3027 72.2376V72.4372Z" fill="#6A9988"/>
<path d="M48.6217 74.2839C46.3921 73.8347 44.2688 73.0361 42.3047 71.8882L42.3578 71.7385C44.2688 72.8365 46.3921 73.635 48.5686 74.0842L48.6217 74.2839Z" fill="#6A9988"/>
<path d="M48.993 76.1305C46.4981 75.6813 44.1624 74.783 42.0391 73.4853V73.3356C44.1624 74.5833 46.4981 75.4318 48.94 75.9309L48.993 76.1305Z" fill="#6A9988"/>
<path d="M49.3117 77.9273C46.6044 77.4781 44.0033 76.4799 41.7207 75.0325V74.8828C44.0033 76.2803 46.5513 77.2286 49.2586 77.7277L49.3117 77.9273Z" fill="#6A9988"/>
<path d="M49.6831 79.774C46.7104 79.3747 43.8969 78.2767 41.4551 76.6297V76.5298C43.95 78.0771 46.7104 79.1252 49.63 79.6243L49.6831 79.774Z" fill="#6A9988"/>
<path d="M50.0017 81.5707C46.7636 81.1714 43.7378 80.0235 41.1367 78.1768V78.077C43.7909 79.8239 46.7636 80.9219 49.9486 81.421L50.0017 81.5707Z" fill="#6A9988"/>
<path d="M46.7107 82.4192H46.0206C44.1626 81.7704 42.4109 80.872 40.8184 79.7241V79.6243C42.6763 80.872 44.6404 81.8203 46.7107 82.4192Z" fill="#6A9988"/>
<path d="M42.5165 82.4192H42.2511C41.6671 82.0698 41.1363 81.6706 40.6055 81.2713V81.1714C41.1894 81.6705 41.8795 82.0698 42.5165 82.4192Z" fill="#6A9988"/>
<path d="M45.8387 79.7744L46.2188 81.5352L61.1491 78.6861L60.769 76.9253L45.8387 79.7744Z" fill="white"/>
<path d="M60.1406 74.0842L61.7331 81.4709C61.8393 81.9201 61.4677 82.3194 60.99 82.3194H60.6714H60.5653L58.9728 82.3693H58.8666L57.2741 82.4192H57.1679L55.5754 82.4691H55.4692L53.8767 82.519H53.7175L52.125 82.5689H51.9657L50.3732 82.6188H50.214L48.6214 82.6687H48.4622H48.3029C47.9313 82.6687 47.6128 82.4192 47.5598 82.1197L46.8166 78.7758C46.7635 78.4264 46.9228 78.077 47.2943 77.9772L47.719 77.8275L47.9313 77.7277L49.5769 77.1287L49.7893 77.0289L51.4349 76.43L51.6472 76.3801L53.2928 75.7812L53.5051 75.7313L55.1508 75.1323L55.3631 75.0824L57.0087 74.4835L57.1679 74.4336L58.8135 73.8347L58.9728 73.7848C59.5567 73.4354 60.0344 73.685 60.1406 74.0842Z" fill="#435CCC"/>
<path d="M48.0374 77.6777C47.9843 78.8756 47.8251 80.0235 47.5066 81.1714L47.4004 80.7222C47.6127 79.724 47.772 78.7258 47.8251 77.7276L48.0374 77.6777Z" fill="#6A9988"/>
<path d="M49.8951 76.979C49.842 78.9255 49.4704 80.8221 48.7803 82.6188H48.6211C49.2581 80.8221 49.6297 78.9754 49.6828 77.0788L49.8951 76.979Z" fill="#6A9988"/>
<path d="M51.7536 76.3302C51.7536 78.4763 51.3289 80.6225 50.4796 82.6189H50.3203C51.0635 80.6225 51.4881 78.5262 51.5412 76.43L51.7536 76.3302Z" fill="#6A9988"/>
<path d="M53.559 75.6315C53.6121 77.9772 53.1343 80.3729 52.1788 82.569H52.0195C52.8689 80.3729 53.3466 78.077 53.3466 75.7313L53.559 75.6315Z" fill="#6A9988"/>
<path d="M55.4151 74.9327C55.5213 77.528 54.9905 80.1233 53.9288 82.4691H53.7695C54.7781 80.0734 55.2559 77.528 55.2028 74.9826L55.4151 74.9327Z" fill="#6A9988"/>
<path d="M57.2733 74.2839C57.4325 77.1287 56.8486 79.9237 55.6277 82.4691H55.5215C56.6362 79.8738 57.1671 77.1287 57.114 74.3338L57.2733 74.2839Z" fill="#6A9988"/>
<path d="M59.0786 73.5851C59.291 76.6297 58.7071 79.6741 57.3269 82.4192H57.2207C58.4947 79.6242 59.0786 76.6796 58.9194 73.6351L59.0786 73.5851Z" fill="#6A9988"/>
<path d="M60.6186 76.4799L60.7779 77.0788C60.5124 78.9255 59.8754 80.7223 59.0261 82.3693H58.9199C59.8223 80.4727 60.3532 78.5262 60.6186 76.4799Z" fill="#6A9988"/>
<path d="M61.4669 80.323L61.52 80.5725C61.2546 81.1715 60.9891 81.7704 60.6706 82.3194H60.5645C60.936 81.6706 61.2015 81.0217 61.4669 80.323Z" fill="#6A9988"/>
<path d="M103.775 80.5226H87.584V81.6207H103.775V80.5226Z" fill="white"/>
<path d="M102.129 80.1732V81.97C102.129 82.2196 101.757 82.3693 101.279 82.3693H89.9724C89.8131 82.3693 89.707 82.3693 89.5477 82.3194C89.4946 82.3194 89.3884 82.2695 89.3354 82.2196C89.1761 82.1696 89.123 82.0199 89.123 81.9201V80.1233C89.123 79.8738 89.4946 79.7241 89.9724 79.7241H101.279C101.545 79.7241 101.757 79.774 101.916 79.8738C101.969 79.9237 102.022 79.9237 102.022 79.9736C102.129 80.0734 102.129 80.1233 102.129 80.1732Z" fill="#435CCC"/>
<path d="M91.1933 79.774C90.5563 80.2731 89.9193 80.7722 89.123 81.2214V81.0217C89.8131 80.6225 90.397 80.2232 90.9279 79.774H91.1933Z" fill="#6A9988"/>
<path d="M94.0069 79.774C92.8391 80.7722 91.3528 81.6207 89.601 82.3693C89.5479 82.3693 89.4418 82.3194 89.3887 82.2695C91.0874 81.5208 92.5737 80.7223 93.7946 79.774H94.0069Z" fill="#6A9988"/>
<path d="M96.8196 79.774C95.5987 80.7722 94.1123 81.6706 92.2544 82.4192H91.8828C93.6877 81.6706 95.3333 80.7722 96.6073 79.774H96.8196Z" fill="#6A9988"/>
<path d="M99.5813 79.774C98.3604 80.7722 96.8741 81.6706 95.0161 82.4192H94.6445C96.4494 81.6706 98.095 80.7722 99.369 79.774H99.5813Z" fill="#6A9988"/>
<path d="M102.075 80.0235C100.907 80.9219 99.5273 81.7205 97.8286 82.4192H97.457C99.1557 81.6706 100.695 80.872 101.969 79.9237C102.022 79.9237 102.022 79.9736 102.075 80.0235Z" fill="#6A9988"/>
<path d="M102.128 81.5208V81.7204C101.65 81.97 101.119 82.1696 100.588 82.4192H100.217C100.907 82.1197 101.544 81.8203 102.128 81.5208Z" fill="#6A9988"/>
<path d="M113.885 82.4367V72.0056H112.398V82.4367H113.885Z" fill="white"/>
<path d="M114.338 81.421H111.896C111.578 81.421 111.312 81.1715 111.312 80.872V73.5851C111.312 73.4853 111.366 73.3855 111.366 73.3356C111.419 73.2857 111.419 73.2358 111.472 73.1859C111.578 73.086 111.737 73.0361 111.843 73.0361H114.285C114.604 73.0361 114.869 73.2857 114.869 73.5851V80.872C114.869 81.0217 114.763 81.1715 114.657 81.2713C114.604 81.3212 114.551 81.3212 114.498 81.3711C114.498 81.421 114.444 81.421 114.338 81.421Z" fill="#435CCC"/>
<path d="M114.923 74.3837C114.233 73.9844 113.596 73.5352 112.959 73.0361H113.278C113.808 73.4853 114.339 73.8347 114.923 74.234V74.3837Z" fill="#F5C1B8"/>
<path d="M114.921 76.1804C113.594 75.4318 112.373 74.4835 111.418 73.3356C111.471 73.2857 111.471 73.2358 111.524 73.1859C112.533 74.2839 113.647 75.2322 114.921 76.0307V76.1804Z" fill="#F5C1B8"/>
<path d="M114.922 77.9772C113.542 77.1786 112.321 76.2303 111.312 75.0325V74.783C112.374 75.9309 113.542 76.979 114.922 77.8275V77.9772Z" fill="#F5C1B8"/>
<path d="M114.922 79.774C113.542 78.9754 112.321 78.0272 111.312 76.8293V76.5798C112.374 77.7277 113.542 78.7758 114.922 79.6243V79.774Z" fill="#F5C1B8"/>
<path d="M114.603 81.3711C113.382 80.6225 112.268 79.7241 111.365 78.6261V78.3765C112.374 79.4745 113.489 80.4727 114.763 81.2713C114.656 81.3212 114.656 81.3711 114.603 81.3711Z" fill="#F5C1B8"/>
<path d="M112.533 81.421H112.268C111.949 81.1216 111.631 80.7722 111.365 80.4228V80.1733C111.737 80.6225 112.108 81.0217 112.533 81.421Z" fill="#F5C1B8"/>
<path d="M111.742 80.939L101.531 76.8572L100.95 78.1433L111.16 82.225L111.742 80.939Z" fill="white"/>
<path d="M110.94 80.1233L109.985 82.2195C109.878 82.519 109.507 82.6188 109.241 82.519L102.075 79.6741C101.969 79.6242 101.916 79.5743 101.863 79.5244C101.81 79.4745 101.81 79.4246 101.757 79.3747C101.704 79.2749 101.704 79.1251 101.757 78.9754L102.712 76.8792C102.818 76.5797 103.19 76.4799 103.455 76.5797L110.622 79.4246C110.781 79.4745 110.887 79.6242 110.94 79.774C110.94 79.8239 110.94 79.8738 110.94 79.9237C110.993 79.9736 110.94 80.0235 110.94 80.1233Z" fill="#435CCC"/>
<path d="M104.252 76.8293C103.615 77.2785 102.925 77.6777 102.182 77.9772L102.288 77.7276C102.925 77.4282 103.509 77.1287 104.093 76.7794L104.252 76.8293Z" fill="#6A9988"/>
<path d="M106.003 77.5779C104.729 78.4264 103.349 79.1251 101.809 79.4745C101.756 79.4246 101.756 79.3747 101.703 79.3248C103.136 78.8756 104.57 78.2766 105.791 77.4781L106.003 77.5779Z" fill="#6A9988"/>
<path d="M107.755 78.2767C106.481 79.175 105.047 79.8239 103.455 80.2231L103.189 80.1233C104.729 79.6741 106.215 79.0752 107.542 78.2267L107.755 78.2767Z" fill="#6A9988"/>
<path d="M109.559 78.9754C108.285 79.8738 106.852 80.5226 105.26 80.9219L104.994 80.8221C106.534 80.3729 108.02 79.7739 109.347 78.9255L109.559 78.9754Z" fill="#6A9988"/>
<path d="M110.992 79.8738C109.771 80.6724 108.498 81.2214 107.064 81.6206L106.799 81.5208C108.285 81.1215 109.665 80.5226 110.939 79.7241C110.939 79.774 110.992 79.8738 110.992 79.8738Z" fill="#6A9988"/>
<path d="M110.197 81.6705L110.091 81.9201C109.666 82.0698 109.241 82.2196 108.763 82.3194L108.498 82.2195C109.135 82.0698 109.666 81.8702 110.197 81.6705Z" fill="#6A9988"/>
</svg>
